<svg width="15" height="16" viewBox="0 0 15 16" fill="none" xmlns="http://www.w3.org/2000/svg">
<circle cx="7.5" cy="8" r="7.5" fill="#828282"/>
<path d="M5.12711 5.17383V12.1738H3.14711V6.70383H1.84711V5.17383H5.12711ZM9.26984 12.3138C8.66984 12.3138 8.13651 12.1705 7.66984 11.8838C7.20318 11.5972 6.83651 11.1805 6.56984 10.6338C6.30984 10.0805 6.17984 9.42716 6.17984 8.67383C6.17984 7.92049 6.30984 7.27049 6.56984 6.72383C6.83651 6.17049 7.20318 5.75049 7.66984 5.46383C8.13651 5.17716 8.66984 5.03383 9.26984 5.03383C9.86318 5.03383 10.3932 5.17716 10.8598 5.46383C11.3265 5.75049 11.6898 6.17049 11.9498 6.72383C12.2165 7.27049 12.3498 7.92049 12.3498 8.67383C12.3498 9.42716 12.2165 10.0805 11.9498 10.6338C11.6898 11.1805 11.3265 11.5972 10.8598 11.8838C10.3932 12.1705 9.86318 12.3138 9.26984 12.3138ZM9.26984 10.6938C9.60318 10.6938 9.86651 10.5338 10.0598 10.2138C10.2598 9.88716 10.3598 9.37383 10.3598 8.67383C10.3598 7.97383 10.2598 7.46383 10.0598 7.14383C9.86651 6.81716 9.60318 6.65383 9.26984 6.65383C8.92984 6.65383 8.65984 6.81716 8.45984 7.14383C8.26651 7.46383 8.16984 7.97383 8.16984 8.67383C8.16984 9.37383 8.26651 9.88716 8.45984 10.2138C8.65984 10.5338 8.92984 10.6938 9.26984 10.6938Z" fill="white"/>
</svg>
