<svg width="15" height="16" viewBox="0 0 15 16" fill="none" xmlns="http://www.w3.org/2000/svg">
<circle cx="7.5" cy="8" r="7.5" fill="#828282"/>
<path d="M5.5568 5.17383V12.1738H3.5768V6.70383H2.2768V5.17383H5.5568ZM12.0195 10.6038V12.1738H6.56953V10.9338L9.18953 8.48383C9.44286 8.24383 9.61286 8.04049 9.69953 7.87383C9.7862 7.70049 9.82953 7.52716 9.82953 7.35383C9.82953 7.12716 9.75286 6.95049 9.59953 6.82383C9.4462 6.69716 9.22286 6.63383 8.92953 6.63383C8.66953 6.63383 8.42953 6.69383 8.20953 6.81383C7.9962 6.92716 7.81953 7.09383 7.67953 7.31383L6.20953 6.49383C6.48286 6.04049 6.8662 5.68383 7.35953 5.42383C7.85286 5.16383 8.4362 5.03383 9.10953 5.03383C9.64286 5.03383 10.1129 5.12049 10.5195 5.29383C10.9329 5.46716 11.2529 5.71716 11.4795 6.04383C11.7129 6.36383 11.8295 6.73716 11.8295 7.16383C11.8295 7.54383 11.7462 7.90383 11.5795 8.24383C11.4195 8.57716 11.1062 8.95716 10.6395 9.38383L9.31953 10.6038H12.0195Z" fill="white"/>
</svg>
