<svg width="15" height="16" viewBox="0 0 15 16" fill="none" xmlns="http://www.w3.org/2000/svg">
<circle cx="7.5" cy="8" r="7.5" fill="#828282"/>
<path d="M9.49316 10.6038V12.1738H4.04316V10.9338L6.66316 8.48383C6.9165 8.24383 7.0865 8.04049 7.17316 7.87383C7.25983 7.70049 7.30316 7.52716 7.30316 7.35383C7.30316 7.12716 7.2265 6.95049 7.07316 6.82383C6.91983 6.69716 6.6965 6.63383 6.40316 6.63383C6.14316 6.63383 5.90316 6.69383 5.68316 6.81383C5.46983 6.92716 5.29316 7.09383 5.15316 7.31383L3.68316 6.49383C3.9565 6.04049 4.33983 5.68383 4.83316 5.42383C5.3265 5.16383 5.90983 5.03383 6.58316 5.03383C7.1165 5.03383 7.5865 5.12049 7.99316 5.29383C8.4065 5.46716 8.7265 5.71716 8.95316 6.04383C9.1865 6.36383 9.30316 6.73716 9.30316 7.16383C9.30316 7.54383 9.21983 7.90383 9.05316 8.24383C8.89316 8.57716 8.57983 8.95716 8.11316 9.38383L6.79316 10.6038H9.49316Z" fill="white"/>
</svg>
