<svg width="15" height="16" viewBox="0 0 15 16" fill="none" xmlns="http://www.w3.org/2000/svg">
<circle cx="7.5" cy="8" r="7.5" fill="#828282"/>
<path d="M8.15363 7.97383C8.73363 8.09383 9.17697 8.33383 9.48363 8.69383C9.79697 9.04716 9.95363 9.47716 9.95363 9.98383C9.95363 10.3972 9.8403 10.7805 9.61363 11.1338C9.39363 11.4872 9.05363 11.7738 8.59363 11.9938C8.1403 12.2072 7.57697 12.3138 6.90363 12.3138C6.4103 12.3138 5.9203 12.2538 5.43363 12.1338C4.95363 12.0138 4.53697 11.8438 4.18363 11.6238L4.90363 10.1338C5.17697 10.3205 5.48363 10.4638 5.82363 10.5638C6.1703 10.6638 6.5103 10.7138 6.84363 10.7138C7.18363 10.7138 7.45363 10.6505 7.65363 10.5238C7.85363 10.3972 7.95363 10.2172 7.95363 9.98383C7.95363 9.53049 7.59697 9.30383 6.88363 9.30383H6.05363V8.05383L7.30363 6.70383H4.54363V5.17383H9.60363V6.41383L8.15363 7.97383Z" fill="white"/>
</svg>
