<svg width="15" height="16" viewBox="0 0 15 16" fill="none" xmlns="http://www.w3.org/2000/svg">
<circle cx="7.5" cy="8" r="7.5" fill="#828282"/>
<path d="M7.15922 7.72383C8.13922 7.72383 8.86255 7.92383 9.32922 8.32383C9.80255 8.72383 10.0392 9.25716 10.0392 9.92383C10.0392 10.3572 9.92589 10.7572 9.69922 11.1238C9.47922 11.4838 9.13922 11.7738 8.67922 11.9938C8.22589 12.2072 7.66255 12.3138 6.98922 12.3138C6.49589 12.3138 6.00589 12.2538 5.51922 12.1338C5.03922 12.0138 4.62589 11.8438 4.27922 11.6238L4.98922 10.1338C5.26922 10.3205 5.57589 10.4638 5.90922 10.5638C6.24922 10.6638 6.58922 10.7138 6.92922 10.7138C7.26922 10.7138 7.53922 10.6505 7.73922 10.5238C7.94589 10.3905 8.04922 10.2072 8.04922 9.97383C8.04922 9.74049 7.94922 9.56383 7.74922 9.44383C7.54922 9.32383 7.19589 9.26383 6.68922 9.26383H4.78922L5.13922 5.17383H9.59922V6.70383H6.77922L6.68922 7.72383H7.15922Z" fill="white"/>
</svg>
