<svg width="15" height="16" viewBox="0 0 15 16" fill="none" xmlns="http://www.w3.org/2000/svg">
<circle cx="7.5" cy="8" r="7.5" fill="#828282"/>
<path d="M7.90926 7.71383C8.34926 7.71383 8.75259 7.80716 9.11926 7.99383C9.48592 8.17383 9.77592 8.43383 9.98926 8.77383C10.2093 9.10716 10.3193 9.49049 10.3193 9.92383C10.3193 10.3972 10.1959 10.8172 9.94926 11.1838C9.70926 11.5438 9.37926 11.8238 8.95926 12.0238C8.54592 12.2172 8.08259 12.3138 7.56926 12.3138C6.56926 12.3138 5.77926 12.0172 5.19926 11.4238C4.61926 10.8305 4.32926 9.97716 4.32926 8.86383C4.32926 8.06383 4.48259 7.37716 4.78926 6.80383C5.10259 6.22383 5.53926 5.78383 6.09926 5.48383C6.65926 5.18383 7.30926 5.03383 8.04926 5.03383C8.44926 5.03383 8.82926 5.07716 9.18926 5.16383C9.54926 5.25049 9.85592 5.37716 10.1093 5.54383L9.38926 6.96383C9.04926 6.72383 8.61926 6.60383 8.09926 6.60383C7.59259 6.60383 7.18259 6.74383 6.86926 7.02383C6.55592 7.30383 6.37592 7.70716 6.32926 8.23383C6.72926 7.88716 7.25592 7.71383 7.90926 7.71383ZM7.44926 10.9038C7.72926 10.9038 7.95592 10.8238 8.12926 10.6638C8.30926 10.5038 8.39926 10.2872 8.39926 10.0138C8.39926 9.74716 8.30926 9.53383 8.12926 9.37383C7.95592 9.21383 7.72592 9.13383 7.43926 9.13383C7.15259 9.13383 6.91926 9.21716 6.73926 9.38383C6.55926 9.54383 6.46926 9.75716 6.46926 10.0238C6.46926 10.2838 6.55592 10.4972 6.72926 10.6638C6.90926 10.8238 7.14926 10.9038 7.44926 10.9038Z" fill="white"/>
</svg>
