<svg width="15" height="16" viewBox="0 0 15 16" fill="none" xmlns="http://www.w3.org/2000/svg">
<circle cx="7.5" cy="8" r="7.5" fill="#828282"/>
<path d="M9.2716 8.48383C9.5916 8.67049 9.83827 8.90049 10.0116 9.17383C10.1849 9.44716 10.2716 9.76049 10.2716 10.1138C10.2716 10.5538 10.1449 10.9405 9.8916 11.2738C9.63827 11.6072 9.2816 11.8638 8.8216 12.0438C8.3616 12.2238 7.8316 12.3138 7.2316 12.3138C6.6316 12.3138 6.1016 12.2238 5.6416 12.0438C5.1816 11.8638 4.82493 11.6072 4.5716 11.2738C4.31827 10.9405 4.1916 10.5538 4.1916 10.1138C4.1916 9.76049 4.27827 9.44716 4.4516 9.17383C4.62493 8.90049 4.8716 8.67049 5.1916 8.48383C4.9516 8.31716 4.76493 8.11383 4.6316 7.87383C4.50493 7.63383 4.4416 7.36716 4.4416 7.07383C4.4416 6.66716 4.55827 6.31049 4.7916 6.00383C5.02493 5.69049 5.3516 5.45049 5.7716 5.28383C6.19827 5.11716 6.68493 5.03383 7.2316 5.03383C7.77827 5.03383 8.2616 5.11716 8.6816 5.28383C9.10827 5.45049 9.43827 5.69049 9.6716 6.00383C9.90494 6.31049 10.0216 6.66716 10.0216 7.07383C10.0216 7.36716 9.95494 7.63383 9.8216 7.87383C9.69494 8.11383 9.5116 8.31716 9.2716 8.48383ZM7.2316 6.42383C6.98494 6.42383 6.78494 6.49049 6.6316 6.62383C6.47827 6.75049 6.4016 6.93049 6.4016 7.16383C6.4016 7.39049 6.47494 7.57049 6.6216 7.70383C6.77493 7.83049 6.97827 7.89383 7.2316 7.89383C7.48494 7.89383 7.68827 7.83049 7.8416 7.70383C7.99494 7.57049 8.0716 7.39049 8.0716 7.16383C8.0716 6.93049 7.99494 6.75049 7.8416 6.62383C7.68827 6.49049 7.48494 6.42383 7.2316 6.42383ZM7.2316 10.9238C7.5516 10.9238 7.80494 10.8472 7.9916 10.6938C8.18494 10.5338 8.2816 10.3205 8.2816 10.0538C8.2816 9.78716 8.18494 9.57716 7.9916 9.42383C7.80494 9.26383 7.5516 9.18383 7.2316 9.18383C6.9116 9.18383 6.65493 9.26383 6.4616 9.42383C6.27494 9.57716 6.1816 9.78716 6.1816 10.0538C6.1816 10.3205 6.27494 10.5338 6.4616 10.6938C6.65493 10.8472 6.9116 10.9238 7.2316 10.9238Z" fill="white"/>
</svg>
