<svg width="15" height="16" viewBox="0 0 15 16" fill="none" xmlns="http://www.w3.org/2000/svg">
<circle cx="7.5" cy="8" r="7.5" fill="#828282"/>
<path d="M6.88926 5.03383C7.89592 5.03383 8.68926 5.33049 9.26926 5.92383C9.84926 6.51716 10.1393 7.37049 10.1393 8.48383C10.1393 9.28383 9.98259 9.97383 9.66926 10.5538C9.36259 11.1272 8.92592 11.5638 8.35926 11.8638C7.79926 12.1638 7.14926 12.3138 6.40926 12.3138C6.01592 12.3138 5.63926 12.2672 5.27926 12.1738C4.91926 12.0872 4.61259 11.9638 4.35926 11.8038L5.07926 10.3838C5.41926 10.6238 5.84926 10.7438 6.36926 10.7438C6.86926 10.7438 7.27259 10.6072 7.57926 10.3338C7.89259 10.0538 8.07592 9.65049 8.12926 9.12383C7.72926 9.46383 7.20592 9.63383 6.55926 9.63383C6.11926 9.63383 5.71592 9.54383 5.34926 9.36383C4.98259 9.17716 4.68926 8.91716 4.46926 8.58383C4.25592 8.24383 4.14926 7.85716 4.14926 7.42383C4.14926 6.95049 4.26926 6.53383 4.50926 6.17383C4.75592 5.80716 5.08592 5.52716 5.49926 5.33383C5.91926 5.13383 6.38259 5.03383 6.88926 5.03383ZM7.02926 8.21383C7.31592 8.21383 7.54926 8.13383 7.72926 7.97383C7.90926 7.80716 7.99926 7.59049 7.99926 7.32383C7.99926 7.06383 7.90926 6.85383 7.72926 6.69383C7.55592 6.52716 7.31926 6.44383 7.01926 6.44383C6.73926 6.44383 6.50926 6.52383 6.32926 6.68383C6.15592 6.84383 6.06926 7.06049 6.06926 7.33383C6.06926 7.60049 6.15592 7.81383 6.32926 7.97383C6.50926 8.13383 6.74259 8.21383 7.02926 8.21383Z" fill="white"/>
</svg>
