<svg width="62" height="62" viewBox="0 0 62 62" fill="none" xmlns="http://www.w3.org/2000/svg">
<path d="M15.3134 49.8747H13.0874L13.0755 48.5094H14.8801C15.2046 48.5094 15.4638 48.4738 15.6577 48.4026C15.8516 48.3274 15.9921 48.2186 16.0791 48.0761C16.1701 47.9336 16.2156 47.7556 16.2156 47.5419C16.2156 47.2965 16.1701 47.0987 16.0791 46.9483C15.9881 46.7979 15.8437 46.6891 15.6458 46.6218C15.4519 46.5506 15.2006 46.5149 14.8919 46.5149H13.8709V53.5491H11.7874V44.9063H14.8919C15.4262 44.9063 15.903 44.9558 16.3225 45.0547C16.742 45.1497 17.0981 45.2961 17.391 45.494C17.6878 45.6918 17.9133 45.9411 18.0677 46.2419C18.222 46.5387 18.2992 46.8889 18.2992 47.2926C18.2992 47.6448 18.224 47.9752 18.0736 48.2839C17.9232 48.5925 17.6719 48.8438 17.3197 49.0377C16.9715 49.2277 16.4946 49.3266 15.8892 49.3345L15.3134 49.8747ZM15.2303 53.5491H12.5828L13.2952 51.9464H15.2303C15.5152 51.9464 15.7427 51.9028 15.9129 51.8158C16.087 51.7248 16.2117 51.606 16.2869 51.4596C16.366 51.3092 16.4056 51.143 16.4056 50.961C16.4056 50.7394 16.368 50.5475 16.2928 50.3852C16.2216 50.223 16.1068 50.0983 15.9485 50.0112C15.7902 49.9202 15.5785 49.8747 15.3134 49.8747H13.5623L13.5741 48.5094H15.6695L16.1563 49.0555C16.7341 49.0318 17.1911 49.1129 17.5275 49.2989C17.8678 49.4849 18.1112 49.7303 18.2576 50.035C18.404 50.3397 18.4773 50.6583 18.4773 50.9907C18.4773 51.5566 18.3546 52.0295 18.1092 52.4094C17.8678 52.7893 17.5057 53.0742 17.0229 53.2641C16.5401 53.4541 15.9426 53.5491 15.2303 53.5491ZM21.5996 50.3615L24.7041 44.9063H26.7876V53.5491H24.7041V48.0999L21.5996 53.5491H19.516V44.9063H21.5996V50.3615ZM35.0802 51.9464V53.5491H29.0077V51.9464H35.0802ZM29.6962 51.9464V55.6682H27.767L27.6246 51.9464H29.6962ZM36.4989 51.9464L36.2792 55.6741H34.4094V51.9464H36.4989ZM34.172 44.9063V46.5149H29.8328V44.9063H34.172ZM35.5728 44.9063V53.5491H33.5012V44.9063H35.5728ZM29.6962 44.9063H31.7738L31.5186 48.4501C31.475 49.0555 31.4058 49.5819 31.3108 50.029C31.2158 50.4762 31.1031 50.8621 30.9725 51.1866C30.8419 51.5111 30.6994 51.79 30.5451 52.0235C30.3907 52.257 30.2285 52.4608 30.0583 52.6349C29.8921 52.8091 29.7259 52.9673 29.5597 53.1098C29.3935 53.2523 29.2332 53.3987 29.0789 53.5491H27.8145V51.9464H28.23C28.3527 51.8593 28.4754 51.7426 28.5981 51.5961C28.7247 51.4458 28.8434 51.242 28.9542 50.9847C29.065 50.7275 29.162 50.3931 29.2451 49.9816C29.3282 49.57 29.3915 49.0595 29.435 48.4501L29.6962 44.9063ZM43.1649 51.9464V53.5491H38.5586V51.9464H43.1649ZM39.3006 44.9063V53.5491H37.2171V44.9063H39.3006ZM42.5713 48.3373V49.8866H38.5586V48.3373H42.5713ZM43.1828 44.9063V46.5149H38.5586V44.9063H43.1828ZM51.3328 49.0555V49.4058C51.3328 50.0666 51.2398 50.6602 51.0538 51.1866C50.8718 51.7089 50.6126 52.1561 50.2762 52.5281C49.9399 52.8961 49.5422 53.1791 49.0831 53.3769C48.6241 53.5708 48.1175 53.6678 47.5635 53.6678C47.0055 53.6678 46.495 53.5708 46.032 53.3769C45.573 53.1791 45.1733 52.8961 44.833 52.5281C44.4966 52.1561 44.2354 51.7089 44.0494 51.1866C43.8674 50.6602 43.7763 50.0666 43.7763 49.4058V49.0555C43.7763 48.3947 43.8674 47.8011 44.0494 47.2748C44.2354 46.7484 44.4946 46.3013 44.827 45.9332C45.1634 45.5612 45.5611 45.2783 46.0201 45.0844C46.4832 44.8865 46.9936 44.7876 47.5516 44.7876C48.1056 44.7876 48.6122 44.8865 49.0712 45.0844C49.5342 45.2783 49.9339 45.5612 50.2703 45.9332C50.6067 46.3013 50.8679 46.7484 51.0538 47.2748C51.2398 47.8011 51.3328 48.3947 51.3328 49.0555ZM49.2196 49.4058V49.0437C49.2196 48.6163 49.182 48.2403 49.1068 47.9158C49.0356 47.5874 48.9288 47.3123 48.7863 47.0907C48.6438 46.8691 48.4677 46.7029 48.258 46.5921C48.0522 46.4774 47.8168 46.42 47.5516 46.42C47.2746 46.42 47.0332 46.4774 46.8274 46.5921C46.6217 46.7029 46.4495 46.8691 46.311 47.0907C46.1725 47.3123 46.0676 47.5874 45.9964 47.9158C45.9291 48.2403 45.8955 48.6163 45.8955 49.0437V49.4058C45.8955 49.8292 45.9291 50.2051 45.9964 50.5336C46.0676 50.8581 46.1725 51.1331 46.311 51.3587C46.4535 51.5843 46.6276 51.7544 46.8334 51.8692C47.0431 51.984 47.2865 52.0413 47.5635 52.0413C47.8286 52.0413 48.0641 51.984 48.2699 51.8692C48.4757 51.7544 48.6478 51.5843 48.7863 51.3587C48.9288 51.1331 49.0356 50.8581 49.1068 50.5336C49.182 50.2051 49.2196 49.8292 49.2196 49.4058Z" fill="#FF6100"/>
<path d="M25.926 18.7668C30.0943 18.7668 34.2625 18.7672 38.4308 18.7664C38.9424 18.7664 39.4186 18.8802 39.8353 19.191C40.1842 19.4513 40.3615 19.7944 40.3603 20.2367C40.356 21.7137 40.3587 23.1907 40.3587 24.6677C40.3587 28.9671 40.3512 33.2669 40.3654 37.5663C40.3678 38.3445 39.9546 38.7487 39.3985 38.9598C39.1106 39.0693 38.7876 39.137 38.4804 39.1374C30.1242 39.1468 21.768 39.1453 13.4114 39.1441C12.884 39.1441 12.3992 39.0027 11.9884 38.66C11.7016 38.421 11.5488 38.1177 11.5488 37.7341C11.5512 31.8785 11.55 26.0233 11.5512 20.1682C11.5512 19.5388 11.947 19.2001 12.4638 18.9606C12.7911 18.8089 13.1408 18.7656 13.4996 18.7656C17.6419 18.7672 21.7837 18.7668 25.926 18.7668ZM25.9488 22.7767C22.586 22.7559 19.8125 25.4889 19.7628 28.8528C19.7116 32.3181 22.4773 35.0873 25.8433 35.1397C29.3845 35.1944 32.1412 32.3263 32.1356 28.969C32.1301 25.5334 29.3814 22.7767 25.9488 22.7767Z" fill="#FF6100"/>
<path d="M51.149 28.9325C51.149 32.4832 51.1486 36.0342 51.1498 39.5849C51.1498 40.0335 50.9836 40.4101 50.6409 40.6893C50.2998 40.967 49.9103 41.0391 49.503 40.8283C48.7693 40.4491 48.1324 39.9303 47.501 39.4073C45.64 37.8657 43.8629 36.2343 42.2607 34.421C41.5545 33.6218 41.5624 33.6151 41.5624 32.5576C41.5624 29.9652 41.5655 27.3724 41.5576 24.78C41.5568 24.5145 41.6183 24.2853 41.7845 24.0892C42.2752 23.509 42.7491 22.9119 43.2725 22.3625C44.6896 20.8745 46.1902 19.4735 47.8094 18.206C48.3136 17.8114 48.8575 17.4648 49.3983 17.1205C50.0694 16.6936 51.1092 17.1206 51.147 18.1233C51.1502 18.2021 51.149 18.2809 51.149 18.3596C51.149 21.8831 51.149 25.4078 51.149 28.9325Z" fill="#FF6100"/>
<path d="M25.9512 12.0764C25.963 8.70292 28.6594 6.17708 31.748 6.08137C35.1246 5.97661 37.8679 8.62612 37.9494 11.905C38.0349 15.3423 35.3342 17.9532 32.1856 18.0674C28.7417 18.1919 25.9559 15.4494 25.9512 12.0764Z" fill="#FF6100"/>
<path d="M23.5447 13.2872C23.5538 15.9308 21.3497 18.1356 18.6266 18.0698C16.044 18.0072 13.925 15.8587 13.9514 13.2202C13.9758 10.766 15.9325 8.47375 18.753 8.4773C21.5589 8.48084 23.5613 10.7479 23.5447 13.2872Z" fill="#FF6100"/>
<path d="M24.322 28.9541C24.322 27.9765 24.3184 26.9986 24.3271 26.021C24.3279 25.917 24.3763 25.7863 24.4496 25.7209C24.4878 25.687 24.643 25.7485 24.7214 25.8016C26.1653 26.7792 27.606 27.7619 29.0468 28.7442C29.2772 28.9013 29.2756 29.0144 29.0452 29.1711C27.6253 30.1377 26.2058 31.105 24.7864 32.0715C24.732 32.1086 24.6796 32.1483 24.6221 32.1795C24.4752 32.2594 24.3476 32.1936 24.3255 32.0247C24.3169 31.9601 24.3216 31.8935 24.3216 31.8281C24.3216 30.8703 24.322 29.9124 24.322 28.9541Z" fill="#FF6100"/>
<rect x="0.303922" y="0.303922" width="61.3922" height="61.3922" rx="11.8529" stroke="#FF6100" stroke-width="0.607843"/>
</svg>
