<svg width="62" height="62" viewBox="0 0 62 62" fill="none" xmlns="http://www.w3.org/2000/svg">
<path d="M13.2228 38.8831H7.88646V34.8882H13.2228C13.95 34.8882 14.5397 34.7654 14.9917 34.5197C15.4438 34.274 15.773 33.935 15.9794 33.5026C16.1956 33.0603 16.3037 32.564 16.3037 32.0137C16.3037 31.424 16.1956 30.8786 15.9794 30.3774C15.773 29.8762 15.4438 29.4733 14.9917 29.1686C14.5397 28.8541 13.95 28.6969 13.2228 28.6969H9.83231V46.1653H4.65813V24.702H13.2228C14.9426 24.702 16.4216 25.0165 17.6599 25.6455C18.908 26.2744 19.8662 27.1392 20.5345 28.2399C21.2027 29.3308 21.5369 30.5789 21.5369 31.9842C21.5369 33.3699 21.2027 34.5787 20.5345 35.6105C19.8662 36.6424 18.908 37.4483 17.6599 38.0281C16.4216 38.5981 14.9426 38.8831 13.2228 38.8831ZM31.2956 46.1653H26.5341L26.5636 42.1851H31.2956C32.2783 42.1851 33.1087 41.9493 33.7868 41.4776C34.4748 41.0058 34.9956 40.3032 35.3494 39.3696C35.713 38.4261 35.8948 37.2665 35.8948 35.8906V34.9619C35.8948 33.93 35.7916 33.0259 35.5853 32.2495C35.3887 31.4633 35.0939 30.8098 34.7008 30.289C34.3077 29.7583 33.8163 29.3603 33.2267 29.0949C32.6468 28.8296 31.9786 28.6969 31.2219 28.6969H26.4457V24.702H31.2219C32.6763 24.702 34.008 24.9526 35.2167 25.4538C36.4353 25.9452 37.4869 26.6528 38.3714 27.5766C39.2657 28.4905 39.9536 29.5765 40.4351 30.8344C40.9265 32.0825 41.1722 33.4682 41.1722 34.9914V35.8906C41.1722 37.4041 40.9265 38.7897 40.4351 40.0477C39.9536 41.3056 39.2706 42.3915 38.3861 43.3055C37.5016 44.2194 36.455 44.927 35.2462 45.4282C34.0473 45.9196 32.7304 46.1653 31.2956 46.1653ZM29.4971 24.702V46.1653H24.323V24.702H29.4971ZM49.044 24.702V46.1653H43.8699V24.702H49.044ZM57.3876 33.6352V37.6154H47.5699V33.6352H57.3876ZM58.2278 24.702V28.6969H47.5699V24.702H58.2278Z" fill="#FF6100"/>
<path d="M6.64501 17.3193L8.68087 13.742H10.0472V19.4097H8.68087V15.8362L6.64501 19.4097H5.27869V13.742H6.64501V17.3193ZM14.7028 15.9919V17.0429H11.795V15.9919H14.7028ZM12.2504 13.742V19.4097H10.8841V13.742H12.2504ZM15.6215 13.742V19.4097H14.259V13.742H15.6215ZM19.7126 17.4906H21.0751C21.0569 17.885 20.9505 18.2328 20.7559 18.5338C20.5612 18.8349 20.2913 19.0697 19.9462 19.2384C19.6036 19.4045 19.1988 19.4875 18.7317 19.4875C18.3528 19.4875 18.0141 19.4239 17.7157 19.2968C17.4199 19.1696 17.1681 18.9867 16.9605 18.7479C16.7555 18.5092 16.5985 18.2198 16.4895 17.8799C16.3831 17.5399 16.3299 17.1571 16.3299 16.7315V16.424C16.3299 15.9984 16.3857 15.6156 16.4973 15.2757C16.6115 14.9331 16.7724 14.6425 16.98 14.4037C17.1902 14.1624 17.4419 13.9781 17.7352 13.851C18.0284 13.7238 18.3541 13.6602 18.7122 13.6602C19.2053 13.6602 19.6218 13.7485 19.9618 13.9249C20.3017 14.1014 20.5651 14.344 20.752 14.6528C20.9388 14.9591 21.0491 15.3081 21.0829 15.7H19.7204C19.7152 15.4872 19.6789 15.3094 19.6114 15.1667C19.544 15.0214 19.4376 14.9124 19.2922 14.8397C19.1469 14.767 18.9536 14.7307 18.7122 14.7307C18.5435 14.7307 18.3969 14.7618 18.2724 14.8241C18.1478 14.8864 18.044 14.985 17.9609 15.12C17.8779 15.2549 17.8156 15.4301 17.7741 15.6455C17.7352 15.8583 17.7157 16.1152 17.7157 16.4162V16.7315C17.7157 17.0326 17.7339 17.2895 17.7702 17.5023C17.8065 17.7151 17.8649 17.8889 17.9454 18.0239C18.0258 18.1588 18.1296 18.2587 18.2568 18.3236C18.3865 18.3859 18.5448 18.417 18.7317 18.417C18.9393 18.417 19.1145 18.3846 19.2572 18.3197C19.3999 18.2523 19.5102 18.151 19.5881 18.0161C19.6659 17.8786 19.7075 17.7034 19.7126 17.4906ZM24.3488 13.742V19.4097H22.9825V13.742H24.3488ZM26.0538 13.742V14.7969H21.3164V13.742H26.0538ZM28.8954 17.4867H27.4863V16.4318H28.8954C29.0874 16.4318 29.2432 16.3994 29.3625 16.3345C29.4819 16.2696 29.5688 16.1801 29.6233 16.0659C29.6804 15.9491 29.709 15.818 29.709 15.6727C29.709 15.517 29.6804 15.373 29.6233 15.2406C29.5688 15.1083 29.4819 15.0019 29.3625 14.9214C29.2432 14.8384 29.0874 14.7969 28.8954 14.7969H28.0001V19.4097H26.6338V13.742H28.8954C29.3496 13.742 29.7401 13.825 30.0671 13.9911C30.3967 14.1572 30.6497 14.3856 30.8262 14.6762C31.0026 14.9643 31.0909 15.2938 31.0909 15.6649C31.0909 16.0308 31.0026 16.35 30.8262 16.6225C30.6497 16.895 30.3967 17.1078 30.0671 17.2609C29.7401 17.4114 29.3496 17.4867 28.8954 17.4867ZM33.6211 17.2726L34.9602 13.742H36.4043L34.493 18.238C34.4204 18.4041 34.336 18.5624 34.24 18.7129C34.1466 18.8634 34.035 18.997 33.9053 19.1138C33.7781 19.2306 33.6276 19.3227 33.4537 19.3902C33.2798 19.4577 33.0761 19.4914 32.8426 19.4914C32.7855 19.4914 32.7154 19.4901 32.6324 19.4875C32.5519 19.4875 32.4818 19.4862 32.4222 19.4836L32.3988 18.4248C32.4325 18.4326 32.4792 18.4378 32.5389 18.4404C32.5986 18.4404 32.6414 18.4404 32.6674 18.4404C32.8231 18.4404 32.9464 18.4222 33.0372 18.3859C33.128 18.347 33.1994 18.2899 33.2513 18.2146C33.3058 18.1368 33.3525 18.0382 33.3914 17.9188L33.6211 17.2726ZM32.862 13.742L34.022 16.2021L34.4658 17.7748H33.4848L31.4101 13.742H32.862ZM38.2261 13.742V19.4097H36.8637V13.742H38.2261ZM41.4959 13.742L39.4601 17.1675H37.9886L37.8252 15.9335H38.7555L39.8454 13.742H41.4959ZM40.079 19.4097L38.7516 16.93L39.7442 16.0153L41.6906 19.4097H40.079ZM47.5685 18.3703L47.4906 20.776H46.2021V19.4097H45.7817V18.3703H47.5685ZM41.9358 19.4097V13.742H43.2982V18.3587H45.3341V13.742H46.7043V19.4097H41.9358ZM49.472 17.3193L51.5078 13.742H52.8741V19.4097H51.5078V15.8362L49.472 19.4097H48.1056V13.742H49.472V17.3193ZM56.6617 17.4205H55.1475L54.7426 17.2531C54.2807 17.1078 53.9291 16.8924 53.6877 16.607C53.4464 16.3189 53.3257 15.9517 53.3257 15.5053C53.3257 15.1161 53.4126 14.7917 53.5865 14.5322C53.7604 14.2701 54.0069 14.0728 54.3261 13.9405C54.6453 13.8081 55.0242 13.742 55.4628 13.742H57.5181V19.4097H56.1479V14.7969H55.4628C55.1903 14.7969 54.993 14.8682 54.8711 15.011C54.7491 15.1511 54.6881 15.3561 54.6881 15.626C54.6881 15.8336 54.7167 15.9971 54.7738 16.1165C54.8334 16.2359 54.9204 16.3215 55.0346 16.3734C55.1488 16.4227 55.2915 16.4474 55.4628 16.4474H56.6539L56.6617 17.4205ZM55.6107 16.9106L54.4079 19.4097H52.9209L54.1081 16.9106H55.6107Z" fill="#FF6100"/>
<rect x="0.303922" y="0.303922" width="61.3922" height="61.3922" rx="11.8529" stroke="#FF6100" stroke-width="0.607843"/>
</svg>
