<svg width="15" height="15" viewBox="0 0 15 15" fill="none" xmlns="http://www.w3.org/2000/svg">
<circle cx="7.5" cy="7.5" r="7.5" fill="#FF6100"/>
<path d="M1.94108 7.20899L2.94009 8.04022L3.30251 6.79543L4.56005 6.41343L3.8589 8.62707L5.83368 10.213L4.55973 10.6L3.445 9.70237L3.02333 11.0667L1.77672 11.4454L2.54522 9.07987L0.699932 7.58601L1.94108 7.20899ZM5.0013 6.28536L6.06748 5.96149L6.7501 8.20867L7.64761 5.4815L8.66459 5.17258L9.8272 8.99989L8.76102 9.32376L8.08006 7.08205L7.18635 9.80209L6.16391 10.1127L5.0013 6.28536ZM12.8309 4.84461L11.6608 5.20003L12.5627 8.16894L11.4965 8.49281L10.5947 5.5239L9.41913 5.88099L9.15838 5.02258L12.5702 3.98619L12.8309 4.84461Z" fill="white"/>
</svg>
