<svg width="266" height="148" viewBox="0 0 266 148" fill="none" xmlns="http://www.w3.org/2000/svg">
<path d="M265.5 74C265.5 94.1977 252.278 112.561 230.736 125.901C209.202 139.236 179.421 147.5 146.5 147.5C113.579 147.5 83.7982 139.236 62.264 125.901C40.7221 112.561 27.5 94.1977 27.5 74C27.5 53.8023 40.7221 35.4389 62.264 22.0992C83.7982 8.76419 113.579 0.5 146.5 0.5C179.421 0.5 209.202 8.76419 230.736 22.0992C252.278 35.4389 265.5 53.8023 265.5 74Z" stroke="#FF6100"/>
<path d="M238.5 74C238.5 94.1977 225.278 112.561 203.736 125.901C182.202 139.236 152.421 147.5 119.5 147.5C86.5789 147.5 56.7982 139.236 35.264 125.901C13.7221 112.561 0.5 94.1977 0.5 74C0.5 53.8023 13.7221 35.4389 35.264 22.0992C56.7982 8.76419 86.5789 0.5 119.5 0.5C152.421 0.5 182.202 8.76419 203.736 22.0992C225.278 35.4389 238.5 53.8023 238.5 74Z" stroke="#FF6100"/>
</svg>
