<svg width="120" height="24" viewBox="0 0 120 24" fill="none" xmlns="http://www.w3.org/2000/svg">
<path d="M21.947 9.179C21.818 8.801 21.477 8.534 21.079 8.503L15.378 8.05L12.911 2.589C12.75 2.23 12.393 2 12 2C11.607 2 11.25 2.23 11.089 2.588L8.62199 8.05L2.92099 8.503C2.52999 8.534 2.19299 8.791 2.05999 9.16C1.92699 9.529 2.02099 9.942 2.30199 10.216L6.51499 14.323L5.02499 20.775C4.93299 21.174 5.09399 21.589 5.43099 21.822C5.60299 21.94 5.80099 22 5.99999 22C6.19299 22 6.38699 21.944 6.55499 21.832L12 18.202L17.445 21.832C17.793 22.064 18.25 22.055 18.59 21.808C18.928 21.561 19.077 21.128 18.962 20.726L17.133 14.326L21.669 10.244C21.966 9.976 22.075 9.558 21.947 9.179Z" fill="#FFB700"/>
<path d="M45.947 9.179C45.818 8.801 45.477 8.534 45.079 8.503L39.378 8.05L36.911 2.589C36.75 2.23 36.393 2 36 2C35.607 2 35.25 2.23 35.089 2.588L32.622 8.05L26.921 8.503C26.53 8.534 26.193 8.791 26.06 9.16C25.927 9.529 26.021 9.942 26.302 10.216L30.515 14.323L29.025 20.775C28.933 21.174 29.094 21.589 29.431 21.822C29.603 21.94 29.801 22 30 22C30.193 22 30.387 21.944 30.555 21.832L36 18.202L41.445 21.832C41.793 22.064 42.25 22.055 42.59 21.808C42.928 21.561 43.077 21.128 42.962 20.726L41.133 14.326L45.669 10.244C45.966 9.976 46.075 9.558 45.947 9.179Z" fill="#FFB700"/>
<path d="M69.947 9.179C69.818 8.801 69.477 8.534 69.079 8.503L63.378 8.05L60.911 2.589C60.75 2.23 60.393 2 60 2C59.607 2 59.25 2.23 59.089 2.588L56.622 8.05L50.921 8.503C50.53 8.534 50.193 8.791 50.06 9.16C49.927 9.529 50.021 9.942 50.302 10.216L54.515 14.323L53.025 20.775C52.933 21.174 53.094 21.589 53.431 21.822C53.603 21.94 53.801 22 54 22C54.193 22 54.387 21.944 54.555 21.832L60 18.202L65.445 21.832C65.793 22.064 66.25 22.055 66.59 21.808C66.928 21.561 67.077 21.128 66.962 20.726L65.133 14.326L69.669 10.244C69.966 9.976 70.075 9.558 69.947 9.179Z" fill="#FFB700"/>
<path d="M93.947 9.179C93.818 8.801 93.477 8.534 93.079 8.503L87.378 8.05L84.911 2.589C84.75 2.23 84.393 2 84 2C83.607 2 83.25 2.23 83.089 2.588L80.622 8.05L74.921 8.503C74.53 8.534 74.193 8.791 74.06 9.16C73.927 9.529 74.021 9.942 74.302 10.216L78.515 14.323L77.025 20.775C76.933 21.174 77.094 21.589 77.431 21.822C77.603 21.94 77.801 22 78 22C78.193 22 78.387 21.944 78.555 21.832L84 18.202L89.445 21.832C89.793 22.064 90.25 22.055 90.59 21.808C90.928 21.561 91.077 21.128 90.962 20.726L89.133 14.326L93.669 10.244C93.966 9.976 94.075 9.558 93.947 9.179Z" fill="#FFB700"/>
<path d="M117.947 9.179C117.818 8.801 117.477 8.534 117.079 8.503L111.378 8.05L108.911 2.589C108.75 2.23 108.393 2 108 2C107.607 2 107.25 2.23 107.089 2.588L104.622 8.05L98.921 8.503C98.53 8.534 98.193 8.791 98.06 9.16C97.927 9.529 98.021 9.942 98.302 10.216L102.515 14.323L101.025 20.775C100.933 21.174 101.094 21.589 101.431 21.822C101.603 21.94 101.801 22 102 22C102.193 22 102.387 21.944 102.555 21.832L108 18.202L113.445 21.832C113.793 22.064 114.25 22.055 114.59 21.808C114.928 21.561 115.077 21.128 114.962 20.726L113.133 14.326L117.669 10.244C117.966 9.976 118.075 9.558 117.947 9.179Z" fill="#FFB700"/>
</svg>
