<svg width="99" height="114" viewBox="0 0 99 114" fill="none" xmlns="http://www.w3.org/2000/svg">
<path d="M0.59021 68.1201C0.675422 68.0558 0.699912 67.9661 0.708048 67.8631C0.78728 66.805 1.13292 65.8311 1.67603 64.9352C2.21147 64.0513 2.91081 63.3179 3.78906 62.7664C4.54142 62.2941 5.34995 61.987 6.22766 61.8437C8.02509 61.5502 9.81826 61.2315 11.6139 60.9275C13.2313 60.6538 14.8496 60.3852 16.4675 60.1149C17.1671 59.9973 17.8642 59.8704 18.5659 59.7659C19.5454 59.6197 20.5046 59.739 21.446 60.0449C22.0747 60.2487 22.6627 60.5342 23.1912 60.9323C23.4155 61.1011 23.6354 61.1245 23.8955 61.0671C24.5918 60.9145 25.1915 60.5768 25.7338 60.124C26.4476 59.5281 27.0266 58.8133 27.5077 58.0197C27.8049 57.5308 28.0801 57.0261 28.3305 56.5104C28.7205 55.7046 29.0957 54.8897 29.4501 54.0667C30.1325 52.4832 30.6905 50.8521 31.1698 49.1942C31.4928 48.0762 31.814 46.9576 32.1102 45.8325C32.464 44.49 32.7846 43.1389 33.129 41.7935C33.5255 40.245 33.9312 38.6985 34.3333 37.1517C34.3793 36.9755 34.4344 36.8012 34.4721 36.6228C34.6372 35.8587 34.9913 35.1792 35.3565 34.498C36.1552 33.0079 37.19 31.6937 38.2563 30.399C38.9929 29.5051 39.7361 28.6145 40.4532 27.7043C41.033 26.968 41.5395 26.179 41.9429 25.3273C42.2013 24.7808 42.3996 24.2124 42.5194 23.6181C42.7364 22.5457 42.9843 21.4787 43.1092 20.3889C43.1799 19.7752 43.2283 19.1601 43.2837 18.5446C43.365 17.6493 43.3787 16.7512 43.3783 15.8528C43.3777 14.4482 43.3403 13.0453 43.2441 11.6435C43.2111 11.1669 43.1973 10.6897 43.1686 10.2132C43.1353 9.66715 43.0948 9.12049 43.057 8.57427C43.0041 7.80332 42.952 7.03222 42.8974 6.26155C42.8809 6.02368 42.8635 5.78509 42.8357 5.54824C42.7608 4.91292 42.8813 4.31762 43.1876 3.76218C43.5181 3.16252 43.9762 2.6812 44.5461 2.30842C44.9526 2.04263 45.3622 1.77989 45.7699 1.51656C46.8121 1.34013 47.8544 1.16371 48.8967 0.98728C49.0355 0.994974 49.1734 1.00729 49.312 1.00877C49.9384 1.01595 50.5601 1.05332 51.1824 1.14586C52.3319 1.31672 53.4379 1.63667 54.5076 2.09111C55.3453 2.44579 56.1347 2.89062 56.8879 3.40222C57.9219 4.10425 58.8568 4.92378 59.6858 5.86285C60.5424 6.83467 61.2621 7.90367 61.838 9.06651C62.0619 9.51885 62.2664 9.98248 62.4467 10.4538C62.6523 10.9912 62.8106 11.5464 63.0062 12.0873C63.5245 13.5238 63.8034 15.015 64.0131 16.5197C64.2093 17.9287 64.2528 19.3474 64.1934 20.7676C64.1257 22.3834 63.9424 23.9876 63.6215 25.5715C63.2609 27.3474 62.7803 29.092 62.1845 30.8017C62.1061 31.0262 62.0167 31.2481 61.9532 31.4772C61.7036 32.3832 61.4586 33.2901 61.2175 34.1991C60.8689 35.5149 60.5269 36.8331 60.3722 38.19C60.3182 38.6627 60.3048 39.1409 60.2814 39.6173C60.2758 39.7403 60.2733 39.8718 60.3665 39.9897C60.5374 40.0722 60.7142 40.0021 60.8863 39.9668C62.1255 39.7142 63.3615 39.4426 64.6032 39.1994C65.3944 39.045 66.1911 38.9182 66.9883 38.7993C67.9232 38.6606 68.8643 38.5584 69.7981 38.4137C70.9658 38.233 72.1278 38.014 73.2948 37.8298C74.5993 37.6241 75.9041 37.4157 77.2146 37.2509C78.2757 37.1177 79.3445 37.0411 80.411 36.9505C80.8117 36.9166 81.2164 36.9114 81.6188 36.903C82.1748 36.8909 82.7307 36.8779 83.2861 36.8828C83.8001 36.8876 84.314 36.9022 84.8262 36.9385C85.1715 36.963 85.5246 36.9914 85.857 37.0849C87.6521 37.5904 89.2564 38.474 90.7112 39.6458C91.6308 40.3859 92.4476 41.2317 93.1861 42.1513C94.0217 43.1918 94.7611 44.2993 95.3655 45.4948C95.4847 45.7304 95.612 45.9611 95.736 46.1941C95.9003 47.1646 96.0646 48.1351 96.2289 49.1056C96.2032 49.3131 96.1876 49.5234 96.1492 49.7287C95.9935 50.559 95.7607 51.3659 95.4066 52.1335C95.1717 52.6421 94.9319 53.1471 94.696 53.655C94.4827 54.1136 94.3198 54.5886 94.2402 55.0923C94.2052 55.313 94.2667 55.4782 94.4322 55.6124C94.5295 55.6922 94.6261 55.773 94.7292 55.8456C95.1655 56.1523 95.5611 56.5052 95.938 56.8826C96.8978 57.8441 97.5618 58.9902 97.9499 60.2883C98.2535 61.3056 98.3531 62.3476 98.2117 63.4135C98.0613 64.5406 97.7257 65.6047 97.2263 66.6135C96.8413 67.3908 96.3972 68.1372 95.8447 68.811C95.8009 68.8647 95.7654 68.926 95.7237 68.9821C95.6051 69.1403 95.5781 69.3142 95.6491 69.4992C95.7148 69.669 95.7816 69.8395 95.8621 70.0024C96.1871 70.6569 96.5796 71.2723 96.987 71.8772C97.5215 72.67 97.9941 73.4983 98.3542 74.3857C98.555 74.8794 98.7176 75.3866 98.7854 75.9224C98.8318 76.2854 98.8508 76.6476 98.8554 77.0132C98.8647 77.7665 98.7528 78.4959 98.4938 79.2002C98.2606 79.8333 97.9466 80.4265 97.6068 81.0073C97.1183 81.8405 96.5691 82.6331 96.016 83.4229C95.5424 84.0993 95.1051 84.7973 94.7651 85.5545C94.5801 85.9665 94.5237 86.3887 94.6566 86.8252C94.7422 87.1066 94.8562 87.3788 94.9417 87.6603C95.2371 88.6397 95.3353 89.6419 95.2607 90.6591C95.1531 92.1123 94.6923 93.4578 94.0041 94.7259C93.4686 95.7141 92.8 96.608 92.078 97.4629C91.3393 98.3385 90.5312 99.1482 89.7387 99.9722C89.546 100.172 89.3371 100.36 89.1181 100.53C88.0786 101.337 86.9384 101.977 85.7526 102.529C84.7188 103.011 83.6596 103.431 82.5596 103.74C82.4165 103.78 82.2875 103.873 82.1526 103.94C76.4476 104.906 70.7426 105.872 65.0376 106.837C64.9688 106.832 64.8985 106.817 64.8309 106.824C64.2503 106.884 63.6697 106.944 63.0899 107.014C62.11 107.131 61.1316 107.268 60.1507 107.375C59.0728 107.492 57.9928 107.591 56.9119 107.685C56.0256 107.762 55.1381 107.827 54.2505 107.885C53.5433 107.932 52.8349 107.955 52.1275 108C50.7117 108.09 49.294 108.096 47.8765 108.097C46.9729 108.097 46.0698 108.065 45.1668 108.038C44.3055 108.012 43.4454 107.968 42.5836 107.945C41.6384 107.918 40.6923 107.903 39.747 107.886C39.1077 107.875 38.468 107.872 37.8277 107.861C37.1052 107.848 36.3829 107.826 35.6605 107.813C34.9373 107.802 34.2151 107.801 33.4921 107.791C33.0192 107.784 32.5467 107.774 32.0751 107.748C31.865 107.736 31.7291 107.814 31.6391 107.996C31.6267 108.021 31.6151 108.046 31.6006 108.07C30.8601 109.305 29.8541 110.243 28.5361 110.816C28.1295 110.993 27.7096 111.148 27.2674 111.223C25.3888 111.542 23.5115 111.864 21.6325 112.181C20.0141 112.454 18.3956 112.721 16.7771 112.993C16.1461 113.099 15.5164 113.213 14.8861 113.323C14.3766 113.412 13.8638 113.414 13.3488 113.387C12.6453 113.351 11.9729 113.176 11.3253 112.908C10.1666 112.427 9.20146 111.69 8.45767 110.66C8.19292 110.294 7.97124 109.907 7.77409 109.502C7.71741 109.386 7.66418 109.275 7.54511 109.212C5.22748 95.5153 2.90885 81.8177 0.59021 68.1201ZM26.3047 66.0438C26.3187 66.1475 26.335 66.2856 26.3581 66.4216C26.5115 67.3226 26.6649 68.2236 26.8217 69.1241C27.3084 71.9215 27.7996 74.7191 28.2847 77.5169C28.8397 80.7173 29.3945 83.9168 29.9426 87.1184C30.7804 92.0108 31.6123 96.9042 32.4474 101.796C32.4638 101.893 32.4768 101.991 32.4984 102.087C32.5503 102.321 32.6078 102.369 32.8363 102.375C33.2526 102.386 33.6693 102.4 34.0857 102.407C35.5033 102.431 36.9215 102.455 38.3393 102.476C38.9642 102.485 39.5894 102.486 40.2151 102.495C40.7154 102.502 41.2162 102.513 41.7164 102.525C42.4522 102.543 43.1883 102.558 43.9244 102.584C44.6604 102.609 45.3968 102.652 46.1332 102.673C46.842 102.694 47.551 102.7 48.2601 102.706C48.7607 102.711 49.2608 102.717 49.7615 102.701C50.6646 102.671 51.5665 102.608 52.4695 102.588C53.4155 102.567 54.3584 102.497 55.2989 102.411C57.2239 102.236 59.1461 102.039 61.068 101.835C62.0217 101.734 62.9729 101.603 63.9237 101.476C65.6324 101.246 67.3408 101.01 69.0484 100.775C69.8471 100.664 70.6487 100.566 71.4426 100.428C73.375 100.093 75.3029 99.7374 77.2334 99.391C78.7265 99.1231 80.1982 98.7697 81.6435 98.3022C82.8381 97.9164 83.9919 97.4403 85.0698 96.7872C85.4889 96.5336 85.8875 96.2584 86.2129 95.8834C86.359 95.7151 86.5246 95.5632 86.679 95.4025C87.4362 94.6201 88.1774 93.8216 88.8123 92.9316C89.1952 92.3962 89.5446 91.8406 89.7673 91.2137C90.01 90.5326 90.0639 89.8559 89.8035 89.1566C89.4255 88.1421 89.2912 87.0881 89.3639 86.0071C89.4579 84.5936 89.8798 83.2788 90.5497 82.0485C90.8706 81.4594 91.246 80.9012 91.6108 80.3376C91.9835 79.7629 92.3828 79.2051 92.7525 78.6282C93.0015 78.2402 93.2191 77.8326 93.4512 77.4332C93.5865 77.2009 93.6108 76.9588 93.5072 76.7062C93.4218 76.4988 93.3639 76.2768 93.2522 76.0854C92.8716 75.4305 92.4805 74.7819 92.079 74.1394C91.6921 73.5204 91.3096 72.9015 91.0021 72.236C90.4011 70.9357 90.1915 69.5825 90.4263 68.1674C90.5783 67.253 90.8833 66.4037 91.4934 65.6899C91.5838 65.5836 91.665 65.4692 91.7453 65.3549C92.2677 64.6024 92.697 63.8051 92.8821 62.8931C92.9494 62.5617 92.9703 62.2266 92.9334 61.8888C92.8929 61.5249 92.7518 61.2119 92.4894 60.9586C92.329 60.803 92.1647 60.6499 91.9941 60.5067C91.6399 60.211 91.2731 59.93 90.9249 59.6279C90.3358 59.1171 89.881 58.4926 89.5221 57.8046C88.9442 56.6983 88.7795 55.5166 88.9561 54.2843C89.0444 53.6704 89.1927 53.0722 89.4075 52.4921C89.7818 51.4795 90.1638 50.47 90.541 49.4587C90.6241 49.2361 90.705 49.0111 90.7834 48.7866C90.8504 48.5934 90.8516 48.4078 90.7431 48.2203C90.5814 47.942 90.4491 47.6452 90.281 47.3707C89.7213 46.46 89.0967 45.5986 88.3512 44.8299C87.5564 44.0099 86.6836 43.2966 85.6658 42.7736C85.0884 42.4774 84.5004 42.2694 83.8349 42.276C82.9449 42.284 82.0556 42.2599 81.1672 42.3292C80.4187 42.3872 79.6672 42.4164 78.9223 42.5006C77.236 42.6898 75.5581 42.9399 73.8849 43.2223C72.3899 43.4744 70.8909 43.697 69.3925 43.9292C68.7739 44.025 68.1495 44.0862 67.5364 44.2042C66.6902 44.367 65.8464 44.5491 65.011 44.76C63.7419 45.0809 62.4619 45.3368 61.1628 45.5014C60.1805 45.6258 59.1954 45.6553 58.2085 45.5755C57.7185 45.5354 57.2476 45.4306 56.8212 45.1614C56.2527 44.8031 55.8791 44.2941 55.6522 43.6676C54.9545 41.7436 54.7427 39.7633 54.9492 37.7327C55.0724 36.5282 55.3049 35.3443 55.6234 34.1789C55.9004 33.1641 56.2043 32.1571 56.4989 31.1473C56.6914 30.4881 56.8487 29.8179 57.0895 29.1729C57.4184 28.2927 57.6864 27.3917 57.9267 26.4828C58.2819 25.1383 58.5504 23.7764 58.7103 22.3927C58.8964 20.7836 58.9388 19.1693 58.7627 17.5564C58.6254 16.2971 58.3996 15.0518 57.9752 13.8517C57.881 13.5869 57.7885 13.3218 57.7077 13.0529C57.4281 12.1304 57.017 11.2748 56.4695 10.4833C55.7576 9.4549 54.8751 8.606 53.8434 7.91249C53.1797 7.46597 52.469 7.1112 51.714 6.84948C50.7822 6.5268 49.8222 6.39249 48.8394 6.42515C48.7149 6.42929 48.5897 6.44513 48.4676 6.46848C48.3327 6.49487 48.2883 6.56033 48.2858 6.70693C48.2847 6.76326 48.2898 6.81945 48.2931 6.87505C48.3244 7.31006 48.3573 7.74392 48.3877 8.17908C48.4707 9.35674 48.5684 10.5328 48.6303 11.7113C48.6934 12.9173 48.7628 14.124 48.7389 15.3322C48.7195 16.3427 48.7342 17.3564 48.6756 18.3646C48.5793 20.02 48.3863 21.666 48.0367 23.2885C47.9663 23.6178 47.8943 23.9473 47.8348 24.2782C47.6399 25.3612 47.3276 26.407 46.8764 27.4086C46.286 28.718 45.5333 29.9275 44.6497 31.0522C43.8902 32.0186 43.1115 32.9704 42.3334 33.9213C41.6431 34.7654 40.9751 35.6263 40.3806 36.5416C40.0532 37.0454 39.7391 37.5594 39.5887 38.1553C39.15 39.8972 38.7066 41.6373 38.2669 43.3785C37.8584 44.9968 37.4695 46.6215 37.039 48.2346C36.7313 49.3857 36.3785 50.5257 36.0281 51.6644C35.6188 52.9913 35.1439 54.2955 34.6255 55.5821C34.1853 56.6745 33.6907 57.7423 33.1787 58.8014C32.7028 59.7866 32.1854 60.7459 31.5517 61.6384C30.8776 62.5886 30.1217 63.4617 29.2241 64.2064C28.4464 64.8514 27.6028 65.3837 26.6745 65.7806C26.5483 65.8368 26.4119 65.8804 26.3047 66.0438ZM9.27215 87.7829C10.3328 94.0486 11.3932 100.313 12.4538 106.579C12.4796 106.732 12.4962 106.886 12.5373 107.036C12.6803 107.552 12.9909 107.908 13.5332 107.992C13.7197 108.021 13.9206 107.989 14.1109 107.956C18.0739 107.289 22.0362 106.618 25.9996 105.947C26.0818 105.933 26.1644 105.921 26.2461 105.903C26.827 105.777 27.2074 105.29 27.1884 104.688C27.1835 104.534 27.1601 104.38 27.1353 104.228C27.0346 103.618 26.9296 103.008 26.8264 102.398C24.8107 90.4908 22.7953 78.5843 20.7788 66.677C20.7389 66.4413 20.6997 66.2046 20.6361 65.9747C20.4761 65.3993 19.9574 65.0486 19.3697 65.1079C19.2318 65.1215 19.0941 65.1466 18.957 65.1698C15.1042 65.8219 11.2515 66.4741 7.39784 67.1264C7.24699 67.152 7.09731 67.1844 6.94675 67.2117C6.48021 67.2942 6.03087 67.7545 6.02999 68.317C6.02981 68.5399 6.05565 68.7655 6.0929 68.9856C7.15023 75.2527 8.21154 81.5173 9.27215 87.7829Z" fill="#FF6100"/>
</svg>
