<svg width="14" height="10" viewBox="0 0 14 10" fill="none" xmlns="http://www.w3.org/2000/svg">
	<path id="Vector" fill-rule="evenodd" clip-rule="evenodd" d="M13.3492 0.704609C13.4031 0.75838 13.4459 0.822258 13.475 0.892585C13.5042 0.962911 13.5192 1.0383 13.5192 1.11444C13.5192 1.19058 13.5042 1.26598 13.475 1.3363C13.4459 1.40663 13.4031 1.47051 13.3492 1.52428L5.24509 9.62837C5.19132 9.68227 5.12744 9.72504 5.05711 9.75423C4.98679 9.78341 4.91139 9.79843 4.83525 9.79843C4.75911 9.79843 4.68372 9.78341 4.61339 9.75423C4.54307 9.72504 4.47919 9.68227 4.42542 9.62837L0.373373 5.57632C0.264677 5.46763 0.203613 5.32021 0.203613 5.16649C0.203613 5.01277 0.264677 4.86535 0.373373 4.75665C0.482068 4.64796 0.62949 4.58689 0.783208 4.58689C0.936926 4.58689 1.08435 4.64796 1.19304 4.75665L4.83525 8.40002L12.5295 0.704609C12.5833 0.650701 12.6472 0.607932 12.7175 0.578749C12.7878 0.549567 12.8632 0.534546 12.9393 0.534546C13.0155 0.534546 13.0909 0.549567 13.1612 0.578749C13.2315 0.607932 13.2954 0.650701 13.3492 0.704609Z" fill="white"/>
</svg>
