<svg width="48" height="48" viewBox="0 0 48 48" fill="none" xmlns="http://www.w3.org/2000/svg">
<rect width="48" height="48" rx="24" fill="#171B1B"/>
<path fill-rule="evenodd" clip-rule="evenodd" d="M16 19.602C16 15.403 19.802 12 24 12C28.199 12 32 15.403 32 19.602C32 23.3906 29.1747 27.8421 25.2932 33.9576C24.8737 34.6186 24.4419 35.2989 24 36C23.5581 35.2989 23.1263 34.6186 22.7068 33.9576C18.8253 27.8421 16 23.3906 16 19.602ZM18 20C18 23.314 20.686 26 24 26C27.314 26 30 23.314 30 20C30 16.686 27.314 14 24 14C20.686 14 18 16.686 18 20Z" fill="#F5D3AB"/>
</svg>
