<svg width="48" height="48" viewBox="0 0 48 48" fill="none" xmlns="http://www.w3.org/2000/svg">
<rect width="48" height="48" rx="24" fill="#171B1B"/>
<path fill-rule="evenodd" clip-rule="evenodd" d="M15.2891 13.039C8.08794 16.794 19.5231 39.0211 26.8902 35.654C27.0112 35.599 28.9923 34.625 29.0003 34.621L25.4792 27.826C25.4722 27.83 23.5062 28.796 23.4152 28.837C21.1761 29.923 16.6171 21.017 18.8061 19.843L20.8881 18.817L17.3961 12L15.2891 13.039ZM28.2693 23.115L25.3522 22.245L26.2212 19.329C26.9672 19.551 27.6302 20.059 28.0292 20.798C28.4293 21.536 28.4923 22.368 28.2693 23.115ZM27.1562 16.187C28.7073 16.649 30.0823 17.703 30.9123 19.238C31.7433 20.774 31.8723 22.501 31.4103 24.051L29.6153 23.516C29.9403 22.425 29.8483 21.21 29.2633 20.129C28.6803 19.048 27.7122 18.307 26.6202 17.983L27.1562 16.187ZM33.8353 17.656C32.5693 15.312 30.4713 13.705 28.1062 13L27.5572 14.841C29.4523 15.405 31.1323 16.693 32.1483 18.57C33.1623 20.446 33.3203 22.557 32.7563 24.452L34.5963 25C35.3014 22.634 35.1044 19.999 33.8353 17.656Z" fill="#F5D3AB"/>
</svg>
