<svg width="102" height="86" viewBox="0 0 102 86" fill="none" xmlns="http://www.w3.org/2000/svg">
<path fill-rule="evenodd" clip-rule="evenodd" d="M85.8445 42.0632L85.1387 41.8598L88.7614 38.2171C97.4478 29.4844 97.4478 15.2727 88.7614 6.53998C81.7645 -0.495524 70.8374 -2.03397 62.1904 2.79973L57.3273 5.516C48.6046 10.3878 40.6059 16.4555 33.5498 23.5506C28.2458 28.8839 23.5028 34.7995 19.4178 41.1269L16.1555 42.0632C6.64316 44.7961 0 53.6512 0 63.5999C0 75.9521 9.99271 86 22.2771 86H79.7245C92.0073 86 102 75.9521 102 63.5999C102 53.6512 95.3568 44.7961 85.8445 42.0632ZM85.3658 45.3866C85.1585 49.7604 84.7669 54.1607 84.1533 58.4866C84.1187 58.7347 83.6894 58.7347 83.6532 58.4866C82.9984 53.8746 82.5854 49.1848 82.3913 44.5115L84.9397 45.2444C85.0213 45.2677 85.1008 45.2957 85.1803 45.3237L85.1806 45.3239C85.242 45.3455 85.3034 45.3672 85.3658 45.3866ZM64.0184 5.5744C63.941 5.61195 63.8636 5.64946 63.7878 5.69135L61.4731 6.98663C64.8917 10.1512 68.4831 13.1735 72.193 15.9708C72.2933 16.0469 72.4332 16.037 72.522 15.9477C72.6092 15.8583 72.6191 15.7177 72.545 15.6168C69.9391 12.1231 67.1209 8.73351 64.1893 5.48954C64.1327 5.51902 64.0756 5.54672 64.0184 5.5744ZM58.4509 8.68223C62.1871 12.1925 66.1338 15.5358 70.2171 18.616C70.8456 19.0907 71.5925 19.324 72.3394 19.324C73.2541 19.324 74.1655 18.9733 74.8483 18.2868C76.0871 17.0428 76.2269 15.0411 75.1773 13.6317C72.7457 10.3712 70.1201 7.21491 67.4055 4.16118C74.0174 2.12149 81.4125 3.83364 86.4335 8.88239C93.8367 16.3265 93.8367 28.4372 86.4335 35.8813L81.5194 40.8226L80.4961 40.5281C71.3194 37.8912 61.8136 36.5298 52.2947 36.4156C49.3022 32.7333 46.1106 29.1618 42.7742 25.8053L39.4592 22.472C41.0879 20.9815 42.7594 19.5423 44.4786 18.1611L45.1005 18.7864C49.8418 23.5539 54.9665 28.022 60.3297 32.0666C60.9582 32.5414 61.7067 32.7747 62.452 32.7747C63.3667 32.7747 64.2781 32.424 64.9608 31.7374C66.1996 30.4935 66.3411 28.4918 65.2899 27.0824C61.4056 21.8732 57.1216 16.8989 52.5629 12.2719C54.4828 11.0081 56.4488 9.81539 58.4509 8.68223ZM69.0951 41.2758C68.0027 41.0823 66.9054 40.9102 65.8064 40.7514V41.2179C65.8064 47.8018 66.277 54.4469 67.1999 60.968C67.2361 61.2161 67.6655 61.2161 67.7 60.968C68.623 54.4651 69.0918 47.8415 69.0951 41.2758ZM49.959 39.697L49.9597 39.697L49.96 39.697C50.3063 39.6891 50.6528 39.6811 51 39.6811C51.3472 39.6811 51.6937 39.6891 52.04 39.697L52.0403 39.697C52.2419 39.7016 52.4436 39.7062 52.6452 39.7093V44.5248C52.6452 51.1087 52.1746 57.7538 51.2501 64.2748C51.2155 64.5229 50.7861 64.5229 50.7499 64.2748C49.8254 57.7554 49.3548 51.1103 49.3548 44.5264V39.7093C49.556 39.7062 49.7571 39.7016 49.9583 39.697L49.959 39.697ZM62.656 29.0658C58.7372 23.812 54.4104 18.793 49.7941 14.1495C48.8843 14.7897 47.9877 15.4481 47.0993 16.1164L47.4267 16.4456C52.0578 21.104 57.0641 25.4679 62.3039 29.4198C62.4043 29.4959 62.5457 29.486 62.6329 29.3967C62.7201 29.3074 62.73 29.1667 62.656 29.0658ZM37.0605 24.7383L40.4479 28.1444C43.0736 30.7846 45.5775 33.5852 47.9959 36.4438C46.8674 36.4752 45.7404 36.5281 44.6135 36.5943C42.3925 34.6307 40.2077 32.5828 38.12 30.4835L34.7442 27.089C34.9034 26.9233 35.0593 26.7545 35.215 26.5857L35.2151 26.5856L35.2152 26.5855L35.2155 26.5852L35.2164 26.5843L35.2164 26.5842L35.2166 26.5841L35.2167 26.5839L35.2168 26.5838L35.2169 26.5837L35.2171 26.5835C35.4339 26.3486 35.6505 26.1138 35.876 25.888C36.1162 25.6475 36.3608 25.4127 36.6051 25.1781C36.7574 25.0318 36.9096 24.8857 37.0605 24.7383ZM27.3258 38.3713C27.049 38.0794 26.7723 37.7876 26.4887 37.5025L26.1827 37.1948C25.5477 38.0484 24.9193 38.9036 24.3105 39.7754C25.4885 39.471 26.6697 39.1898 27.8559 38.9268C27.6783 38.7431 27.5025 38.5577 27.3267 38.3722L27.3264 38.3719L27.3261 38.3716L27.3258 38.3713ZM31.6825 38.151C30.7382 37.1435 29.7873 36.141 28.815 35.1634L28.1931 34.5381C29.5685 32.8094 31.0031 31.1303 32.4821 29.4926L35.7938 32.8243C37.1889 34.2271 38.6333 35.5985 40.0942 36.95C37.2761 37.2362 34.4711 37.6414 31.6825 38.151ZM36.1935 41.2179V40.7514C35.0946 40.9102 33.9973 41.0823 32.9032 41.2758C32.9065 47.8415 33.3754 54.4651 34.2983 60.968C34.3345 61.2161 34.7639 61.2161 34.7985 60.968C35.723 54.4469 36.1935 47.8018 36.1935 41.2179ZM19.6087 44.5132C19.4145 49.1864 19.0016 53.8746 18.3468 58.4882C18.3123 58.7364 17.8829 58.7364 17.8467 58.4882C17.2331 54.1624 16.8415 49.7621 16.6342 45.3883C16.6967 45.3688 16.7582 45.3471 16.8197 45.3254L16.8198 45.3254C16.8993 45.2973 16.9787 45.2693 17.0603 45.246L19.6087 44.5132ZM22.2771 82.6915H79.7229C90.1927 82.6915 98.7097 74.1258 98.7097 63.5999C98.7097 56.4717 94.6988 50.0135 88.6034 46.7497C88.3764 50.8291 87.9816 54.9217 87.4091 58.9547C87.1606 60.6983 85.6537 62.0134 83.9032 62.0134C82.1528 62.0134 80.6458 60.6983 80.3974 58.9547C79.6752 53.8762 79.2343 48.705 79.0615 43.5653C76.8488 42.9417 74.6196 42.3875 72.3739 41.9144C72.3427 48.4255 71.8738 54.9895 70.9575 61.4361C70.709 63.1797 69.2021 64.4948 67.4516 64.4948C65.7012 64.4948 64.1942 63.1797 63.9458 61.4378C62.9965 54.7612 62.5161 47.9573 62.5161 41.2179V40.3329C60.3297 40.0881 58.1351 39.9177 55.9355 39.8135V44.5264C55.9355 51.2658 55.4551 58.0681 54.5058 64.7446C54.2574 66.4882 52.7505 67.8033 51 67.8033C49.2495 67.8033 47.7426 66.4882 47.4942 64.7463C46.5449 58.0697 46.0645 51.2658 46.0645 44.5264V39.8135C43.8649 39.9177 41.6703 40.0881 39.4839 40.3329V41.2179C39.4839 47.9573 39.0035 54.7596 38.0542 61.4361C37.8058 63.1797 36.2988 64.4948 34.5484 64.4948C32.7979 64.4948 31.291 63.1797 31.0425 61.4361C30.1262 54.9895 29.6573 48.4255 29.6261 41.9144C27.3804 42.3891 25.1512 42.9417 22.9385 43.5653C22.7641 48.705 22.3248 53.8746 21.6026 58.9547C21.3542 60.6983 19.8472 62.0134 18.0968 62.0134C16.3463 62.0134 14.8394 60.6983 14.5909 58.9564C14.0184 54.9234 13.6236 50.8291 13.3965 46.7497C7.30123 50.0135 3.29032 56.4717 3.29032 63.5999C3.29032 74.1258 11.8073 82.6915 22.2771 82.6915Z" fill="#F5AE5C"/>
</svg>
