<svg width="120" height="24" viewBox="0 0 120 24" fill="none" xmlns="http://www.w3.org/2000/svg">
<path d="M12 18L4.94658 21.7082L6.29366 13.8541L0.587322 8.2918L8.47329 7.1459L12 0L15.5267 7.1459L23.4127 8.2918L17.7063 13.8541L19.0534 21.7082L12 18Z" fill="#F5A623"/>
<path d="M36 18L28.9466 21.7082L30.2937 13.8541L24.5873 8.2918L32.4733 7.1459L36 0L39.5267 7.1459L47.4127 8.2918L41.7063 13.8541L43.0534 21.7082L36 18Z" fill="#F5A623"/>
<path d="M60 18L52.9466 21.7082L54.2937 13.8541L48.5873 8.2918L56.4733 7.1459L60 0L63.5267 7.1459L71.4127 8.2918L65.7063 13.8541L67.0534 21.7082L60 18Z" fill="#F5A623"/>
<path d="M84 18L76.9466 21.7082L78.2937 13.8541L72.5873 8.2918L80.4733 7.1459L84 0L87.5267 7.1459L95.4127 8.2918L89.7063 13.8541L91.0534 21.7082L84 18Z" fill="#F5A623"/>
<path d="M108 18L100.947 21.7082L102.294 13.8541L96.5873 8.2918L104.473 7.1459L108 0L111.527 7.1459L119.413 8.2918L113.706 13.8541L115.053 21.7082L108 18Z" fill="#F5A623"/>
</svg>
