<svg width="488" height="178" viewBox="0 0 488 178" fill="none" xmlns="http://www.w3.org/2000/svg">
<rect width="488" height="178" rx="15" fill="#BDBDBD"/>
<path d="M84.4973 136.816C76.7135 136.816 69.7946 134.957 63.7405 131.238C57.6865 127.519 52.9297 122.114 49.4703 115.022C46.0973 107.843 44.4108 99.3676 44.4108 89.5946C44.4108 79.8216 46.0973 71.3892 49.4703 64.2973C52.9297 57.1189 57.6865 51.6703 63.7405 47.9513C69.7946 44.2324 76.7135 42.373 84.4973 42.373C92.1946 42.373 99.0703 44.2324 105.124 47.9513C111.178 51.6703 115.892 57.1189 119.265 64.2973C122.724 71.3892 124.454 79.8216 124.454 89.5946C124.454 99.3676 122.724 107.843 119.265 115.022C115.892 122.114 111.178 127.519 105.124 131.238C99.0703 134.957 92.1946 136.816 84.4973 136.816ZM84.4973 115.8C88.8216 115.8 92.2378 113.724 94.746 109.573C97.3405 105.335 98.6378 98.6757 98.6378 89.5946C98.6378 80.5135 97.3405 73.8973 94.746 69.7459C92.2378 65.5081 88.8216 63.3892 84.4973 63.3892C80.0865 63.3892 76.5838 65.5081 73.9892 69.7459C71.4811 73.8973 70.227 80.5135 70.227 89.5946C70.227 98.6757 71.4811 105.335 73.9892 109.573C76.5838 113.724 80.0865 115.8 84.4973 115.8Z" fill="white"/>
<path d="M138.919 113.676C141.333 113.676 143.225 114.252 144.594 115.406C145.964 116.559 146.648 118.144 146.648 120.162C146.648 122.18 145.964 123.766 144.594 124.919C143.225 126.054 141.333 126.622 138.919 126.622H133.838V132.595H131.838V113.676H138.919ZM138.865 124.865C140.739 124.865 142.171 124.46 143.162 123.649C144.153 122.82 144.648 121.658 144.648 120.162C144.648 118.631 144.153 117.46 143.162 116.649C142.171 115.82 140.739 115.406 138.865 115.406H133.838V124.865H138.865ZM149.91 132.73C149.513 132.73 149.171 132.586 148.883 132.297C148.612 132.009 148.477 131.658 148.477 131.243C148.477 130.829 148.612 130.487 148.883 130.216C149.171 129.928 149.513 129.784 149.91 129.784C150.306 129.784 150.648 129.928 150.937 130.216C151.225 130.487 151.369 130.829 151.369 131.243C151.369 131.658 151.225 132.009 150.937 132.297C150.648 132.586 150.306 132.73 149.91 132.73Z" fill="white"/>
<path d="M211.497 136.816C203.714 136.816 196.795 134.957 190.741 131.238C184.686 127.519 179.93 122.114 176.47 115.022C173.097 107.843 171.411 99.3676 171.411 89.5946C171.411 79.8216 173.097 71.3892 176.47 64.2973C179.93 57.1189 184.686 51.6703 190.741 47.9513C196.795 44.2324 203.714 42.373 211.497 42.373C219.195 42.373 226.07 44.2324 232.124 47.9513C238.178 51.6703 242.892 57.1189 246.265 64.2973C249.724 71.3892 251.454 79.8216 251.454 89.5946C251.454 99.3676 249.724 107.843 246.265 115.022C242.892 122.114 238.178 127.519 232.124 131.238C226.07 134.957 219.195 136.816 211.497 136.816ZM211.497 115.8C215.822 115.8 219.238 113.724 221.746 109.573C224.341 105.335 225.638 98.6757 225.638 89.5946C225.638 80.5135 224.341 73.8973 221.746 69.7459C219.238 65.5081 215.822 63.3892 211.497 63.3892C207.086 63.3892 203.584 65.5081 200.989 69.7459C198.481 73.8973 197.227 80.5135 197.227 89.5946C197.227 98.6757 198.481 105.335 200.989 109.573C203.584 113.724 207.086 115.8 211.497 115.8Z" fill="white"/>
<path d="M265.919 113.676C268.333 113.676 270.225 114.252 271.594 115.406C272.964 116.559 273.648 118.144 273.648 120.162C273.648 122.18 272.964 123.766 271.594 124.919C270.225 126.054 268.333 126.622 265.919 126.622H260.838V132.595H258.838V113.676H265.919ZM265.865 124.865C267.739 124.865 269.171 124.46 270.162 123.649C271.153 122.82 271.648 121.658 271.648 120.162C271.648 118.631 271.153 117.46 270.162 116.649C269.171 115.82 267.739 115.406 265.865 115.406H260.838V124.865H265.865ZM276.91 132.73C276.513 132.73 276.171 132.586 275.883 132.297C275.612 132.009 275.477 131.658 275.477 131.243C275.477 130.829 275.612 130.487 275.883 130.216C276.171 129.928 276.513 129.784 276.91 129.784C277.306 129.784 277.648 129.928 277.937 130.216C278.225 130.487 278.369 130.829 278.369 131.243C278.369 131.658 278.225 132.009 277.937 132.297C277.648 132.586 277.306 132.73 276.91 132.73Z" fill="white"/>
<path d="M344.854 77.1405C350.562 77.1405 355.795 78.3513 360.551 80.773C365.308 83.1081 369.07 86.4811 371.838 90.8919C374.692 95.2162 376.119 100.189 376.119 105.811C376.119 111.951 374.519 117.4 371.319 122.157C368.205 126.827 363.924 130.459 358.476 133.054C353.114 135.562 347.103 136.816 340.443 136.816C327.47 136.816 317.222 132.968 309.697 125.27C302.173 117.573 298.411 106.503 298.411 92.0595C298.411 81.6811 300.4 72.773 304.378 65.3351C308.443 57.8108 314.108 52.1027 321.373 48.2108C328.638 44.3189 337.07 42.373 346.67 42.373C351.859 42.373 356.789 42.9351 361.459 44.0595C366.13 45.1838 370.108 46.827 373.395 48.9892L364.054 67.4108C359.643 64.2973 354.065 62.7405 347.319 62.7405C340.746 62.7405 335.427 64.5567 331.362 68.1892C327.297 71.8216 324.962 77.054 324.357 83.8865C329.546 79.3892 336.378 77.1405 344.854 77.1405ZM338.886 118.524C342.519 118.524 345.459 117.486 347.708 115.411C350.043 113.335 351.211 110.524 351.211 106.978C351.211 103.519 350.043 100.751 347.708 98.6757C345.459 96.6 342.476 95.5622 338.757 95.5622C335.038 95.5622 332.011 96.6432 329.676 98.8054C327.341 100.881 326.173 103.649 326.173 107.108C326.173 110.481 327.297 113.249 329.546 115.411C331.881 117.486 334.995 118.524 338.886 118.524Z" fill="white"/>
<path d="M405.486 113.676V132.595H403.567V117.46L396.135 130.189H395.189L387.757 117.541V132.595H385.838V113.676H387.486L395.702 127.703L403.838 113.676H405.486ZM425.24 130.865V132.595H411.862V113.676H424.835V115.406H413.862V122.135H423.645V123.838H413.862V130.865H425.24ZM437.842 132.757C435.968 132.757 434.274 132.342 432.761 131.514C431.265 130.685 430.085 129.541 429.22 128.081C428.374 126.604 427.95 124.955 427.95 123.135C427.95 121.315 428.374 119.676 429.22 118.216C430.085 116.739 431.274 115.586 432.788 114.757C434.302 113.928 435.995 113.514 437.869 113.514C439.274 113.514 440.572 113.748 441.761 114.216C442.95 114.685 443.959 115.369 444.788 116.27L443.518 117.541C442.04 116.045 440.175 115.297 437.923 115.297C436.428 115.297 435.067 115.64 433.842 116.324C432.617 117.009 431.653 117.946 430.95 119.135C430.265 120.324 429.923 121.658 429.923 123.135C429.923 124.613 430.265 125.946 430.95 127.135C431.653 128.324 432.617 129.261 433.842 129.946C435.067 130.631 436.428 130.973 437.923 130.973C440.193 130.973 442.058 130.216 443.518 128.703L444.788 129.973C443.959 130.874 442.941 131.568 441.734 132.054C440.545 132.523 439.247 132.757 437.842 132.757ZM448.963 132.73C448.567 132.73 448.225 132.586 447.936 132.297C447.666 132.009 447.531 131.658 447.531 131.243C447.531 130.829 447.666 130.487 447.936 130.216C448.225 129.928 448.567 129.784 448.963 129.784C449.36 129.784 449.702 129.928 449.991 130.216C450.279 130.487 450.423 130.829 450.423 131.243C450.423 131.658 450.279 132.009 449.991 132.297C449.702 132.586 449.36 132.73 448.963 132.73Z" fill="white"/>
</svg>
