<svg width="280" height="140" viewBox="0 0 280 140" fill="none" xmlns="http://www.w3.org/2000/svg">
<rect x="-1.52588e-05" width="280" height="140" rx="24" fill="white"/>
<g clip-path="url(#clip0_1_40)">
<path d="M50.385 41.39C50.2644 41.5136 50.1722 41.662 50.115 41.825C50.0772 41.9979 50.0772 42.177 50.115 42.35L51 48.245C51.0789 48.705 51.0269 49.178 50.85 49.61C50.6703 50.0464 50.3681 50.4215 49.98 50.69C49.5952 50.9604 49.1441 51.1211 48.675 51.155C48.2077 51.1741 47.7446 51.0597 47.34 50.825L42.555 48.17C42.3948 48.0798 42.2138 48.0333 42.03 48.035C41.8414 48.0334 41.6556 48.0799 41.49 48.17L36.735 50.825C36.3206 51.047 35.8549 51.1557 35.385 51.14C35.0371 51.1172 34.6979 51.0221 34.3889 50.8607C34.0799 50.6993 33.808 50.4752 33.5905 50.2027C33.3731 49.9302 33.215 49.6154 33.1262 49.2783C33.0374 48.9411 33.02 48.5892 33.075 48.245L34.035 42.35C34.0801 42.1779 34.0801 41.9971 34.035 41.825C33.989 41.6604 33.9011 41.5105 33.78 41.39L29.565 37.145C29.2504 36.8129 29.0281 36.4044 28.92 35.96C28.8002 35.518 28.8002 35.052 28.92 34.61C29.086 34.1743 29.3657 33.791 29.73 33.5C30.0818 33.2037 30.5065 33.0069 30.96 32.93L36.495 32.09C36.6736 32.0578 36.8427 31.9861 36.99 31.88C37.136 31.7686 37.2541 31.6248 37.335 31.46L39.735 26.3C39.9339 25.8701 40.2513 25.5058 40.65 25.25C41.0514 24.9952 41.517 24.8599 41.9925 24.8599C42.4679 24.8599 42.9336 24.9952 43.335 25.25C43.7337 25.5058 44.0511 25.8701 44.25 26.3L46.665 31.46C46.7411 31.6278 46.8601 31.7727 47.01 31.88C47.1556 31.989 47.3254 32.061 47.505 32.09L53.04 32.93C53.4935 33.0069 53.9181 33.2037 54.27 33.5C54.6145 33.8026 54.8731 34.1906 55.02 34.625C55.1398 35.067 55.1398 35.533 55.02 35.975C54.9119 36.4194 54.6896 36.8279 54.375 37.16L50.385 41.39Z" fill="#1B1B1D"/>
</g>
<g clip-path="url(#clip1_1_40)">
<path d="M86.385 41.39C86.2644 41.5136 86.1722 41.662 86.115 41.825C86.0772 41.9979 86.0772 42.177 86.115 42.35L87 48.245C87.0789 48.705 87.0269 49.178 86.85 49.61C86.6703 50.0464 86.3681 50.4215 85.98 50.69C85.5952 50.9604 85.1441 51.1211 84.675 51.155C84.2077 51.1741 83.7446 51.0597 83.34 50.825L78.555 48.17C78.3948 48.0798 78.2138 48.0333 78.03 48.035C77.8414 48.0334 77.6556 48.0799 77.49 48.17L72.735 50.825C72.3206 51.047 71.8549 51.1557 71.385 51.14C71.0371 51.1172 70.6979 51.0221 70.3889 50.8607C70.0799 50.6993 69.808 50.4752 69.5905 50.2027C69.3731 49.9302 69.215 49.6154 69.1262 49.2783C69.0374 48.9411 69.02 48.5892 69.075 48.245L70.035 42.35C70.0801 42.1779 70.0801 41.9971 70.035 41.825C69.989 41.6604 69.9011 41.5105 69.78 41.39L65.565 37.145C65.2504 36.8129 65.0281 36.4044 64.92 35.96C64.8002 35.518 64.8002 35.052 64.92 34.61C65.086 34.1743 65.3657 33.791 65.73 33.5C66.0818 33.2037 66.5065 33.0069 66.96 32.93L72.495 32.09C72.6736 32.0578 72.8427 31.9861 72.99 31.88C73.136 31.7686 73.2541 31.6248 73.335 31.46L75.735 26.3C75.9339 25.8701 76.2513 25.5058 76.65 25.25C77.0514 24.9952 77.517 24.8599 77.9925 24.8599C78.4679 24.8599 78.9336 24.9952 79.335 25.25C79.7337 25.5058 80.0511 25.8701 80.25 26.3L82.665 31.46C82.7411 31.6278 82.8601 31.7727 83.01 31.88C83.1556 31.989 83.3254 32.061 83.505 32.09L89.04 32.93C89.4935 33.0069 89.9181 33.2037 90.27 33.5C90.6145 33.8026 90.8731 34.1906 91.02 34.625C91.1398 35.067 91.1398 35.533 91.02 35.975C90.9119 36.4194 90.6896 36.8279 90.375 37.16L86.385 41.39Z" fill="#1B1B1D"/>
</g>
<g clip-path="url(#clip2_1_40)">
<path d="M122.385 41.39C122.264 41.5136 122.172 41.662 122.115 41.825C122.077 41.9979 122.077 42.177 122.115 42.35L123 48.245C123.079 48.705 123.027 49.178 122.85 49.61C122.67 50.0464 122.368 50.4215 121.98 50.69C121.595 50.9604 121.144 51.1211 120.675 51.155C120.208 51.1741 119.745 51.0597 119.34 50.825L114.555 48.17C114.395 48.0798 114.214 48.0333 114.03 48.035C113.841 48.0334 113.656 48.0799 113.49 48.17L108.735 50.825C108.321 51.047 107.855 51.1557 107.385 51.14C107.037 51.1172 106.698 51.0221 106.389 50.8607C106.08 50.6993 105.808 50.4752 105.591 50.2027C105.373 49.9302 105.215 49.6154 105.126 49.2783C105.037 48.9411 105.02 48.5892 105.075 48.245L106.035 42.35C106.08 42.1779 106.08 41.9971 106.035 41.825C105.989 41.6604 105.901 41.5105 105.78 41.39L101.565 37.145C101.25 36.8129 101.028 36.4044 100.92 35.96C100.8 35.518 100.8 35.052 100.92 34.61C101.086 34.1743 101.366 33.791 101.73 33.5C102.082 33.2037 102.507 33.0069 102.96 32.93L108.495 32.09C108.674 32.0578 108.843 31.9861 108.99 31.88C109.136 31.7686 109.254 31.6248 109.335 31.46L111.735 26.3C111.934 25.8701 112.251 25.5058 112.65 25.25C113.051 24.9952 113.517 24.8599 113.992 24.8599C114.468 24.8599 114.934 24.9952 115.335 25.25C115.734 25.5058 116.051 25.8701 116.25 26.3L118.665 31.46C118.741 31.6278 118.86 31.7727 119.01 31.88C119.156 31.989 119.325 32.061 119.505 32.09L125.04 32.93C125.493 33.0069 125.918 33.2037 126.27 33.5C126.614 33.8026 126.873 34.1906 127.02 34.625C127.14 35.067 127.14 35.533 127.02 35.975C126.912 36.4194 126.69 36.8279 126.375 37.16L122.385 41.39Z" fill="#1B1B1D"/>
</g>
<g clip-path="url(#clip3_1_40)">
<path d="M158.385 41.39C158.264 41.5136 158.172 41.662 158.115 41.825C158.077 41.9979 158.077 42.177 158.115 42.35L159 48.245C159.079 48.705 159.027 49.178 158.85 49.61C158.67 50.0464 158.368 50.4215 157.98 50.69C157.595 50.9604 157.144 51.1211 156.675 51.155C156.208 51.1741 155.745 51.0597 155.34 50.825L150.555 48.17C150.395 48.0798 150.214 48.0333 150.03 48.035C149.841 48.0334 149.656 48.0799 149.49 48.17L144.735 50.825C144.321 51.047 143.855 51.1557 143.385 51.14C143.037 51.1172 142.698 51.0221 142.389 50.8607C142.08 50.6993 141.808 50.4752 141.591 50.2027C141.373 49.9302 141.215 49.6154 141.126 49.2783C141.037 48.9411 141.02 48.5892 141.075 48.245L142.035 42.35C142.08 42.1779 142.08 41.9971 142.035 41.825C141.989 41.6604 141.901 41.5105 141.78 41.39L137.565 37.145C137.25 36.8129 137.028 36.4044 136.92 35.96C136.8 35.518 136.8 35.052 136.92 34.61C137.086 34.1743 137.366 33.791 137.73 33.5C138.082 33.2037 138.507 33.0069 138.96 32.93L144.495 32.09C144.674 32.0578 144.843 31.9861 144.99 31.88C145.136 31.7686 145.254 31.6248 145.335 31.46L147.735 26.3C147.934 25.8701 148.251 25.5058 148.65 25.25C149.051 24.9952 149.517 24.8599 149.992 24.8599C150.468 24.8599 150.934 24.9952 151.335 25.25C151.734 25.5058 152.051 25.8701 152.25 26.3L154.665 31.46C154.741 31.6278 154.86 31.7727 155.01 31.88C155.156 31.989 155.325 32.061 155.505 32.09L161.04 32.93C161.493 33.0069 161.918 33.2037 162.27 33.5C162.614 33.8026 162.873 34.1906 163.02 34.625C163.14 35.067 163.14 35.533 163.02 35.975C162.912 36.4194 162.69 36.8279 162.375 37.16L158.385 41.39Z" fill="#1B1B1D"/>
</g>
<g clip-path="url(#clip4_1_40)">
<path d="M194.385 41.39C194.264 41.5136 194.172 41.662 194.115 41.825C194.077 41.9979 194.077 42.177 194.115 42.35L195 48.245C195.079 48.705 195.027 49.178 194.85 49.61C194.67 50.0464 194.368 50.4215 193.98 50.69C193.595 50.9604 193.144 51.1211 192.675 51.155C192.208 51.1741 191.745 51.0597 191.34 50.825L186.555 48.17C186.395 48.0798 186.214 48.0333 186.03 48.035C185.841 48.0334 185.656 48.0799 185.49 48.17L180.735 50.825C180.321 51.047 179.855 51.1557 179.385 51.14C179.037 51.1172 178.698 51.0221 178.389 50.8607C178.08 50.6993 177.808 50.4752 177.591 50.2027C177.373 49.9302 177.215 49.6154 177.126 49.2783C177.037 48.9411 177.02 48.5892 177.075 48.245L178.035 42.35C178.08 42.1779 178.08 41.9971 178.035 41.825C177.989 41.6604 177.901 41.5105 177.78 41.39L173.565 37.145C173.25 36.8129 173.028 36.4044 172.92 35.96C172.8 35.518 172.8 35.052 172.92 34.61C173.086 34.1743 173.366 33.791 173.73 33.5C174.082 33.2037 174.507 33.0069 174.96 32.93L180.495 32.09C180.674 32.0578 180.843 31.9861 180.99 31.88C181.136 31.7686 181.254 31.6248 181.335 31.46L183.735 26.3C183.934 25.8701 184.251 25.5058 184.65 25.25C185.051 24.9952 185.517 24.8599 185.992 24.8599C186.468 24.8599 186.934 24.9952 187.335 25.25C187.734 25.5058 188.051 25.8701 188.25 26.3L190.665 31.46C190.741 31.6278 190.86 31.7727 191.01 31.88C191.156 31.989 191.325 32.061 191.505 32.09L197.04 32.93C197.493 33.0069 197.918 33.2037 198.27 33.5C198.614 33.8026 198.873 34.1906 199.02 34.625C199.14 35.067 199.14 35.533 199.02 35.975C198.912 36.4194 198.69 36.8279 198.375 37.16L194.385 41.39Z" fill="#1B1B1D"/>
</g>
<path d="M24.38 85.34H34.507V83.915H31.79H31.467H27.04L30.802 78.291V84.447V84.656V88H32.417V74.7H31.752L24.38 85.34ZM36.8821 87.24C36.8821 87.5187 36.9835 87.7657 37.1861 87.981C37.4015 88.1837 37.6485 88.285 37.9271 88.285C38.2185 88.285 38.4655 88.1837 38.6681 87.981C38.8708 87.7657 38.9721 87.5187 38.9721 87.24C38.9721 86.9487 38.8708 86.7017 38.6681 86.499C38.4655 86.2963 38.2185 86.195 37.9271 86.195C37.6485 86.195 37.4015 86.2963 37.1861 86.499C36.9835 86.7017 36.8821 86.9487 36.8821 87.24ZM49.2284 79.07C49.2284 79.678 49.0954 80.2163 48.8294 80.685C48.5761 81.1537 48.2214 81.5273 47.7654 81.806C47.3221 82.072 46.8154 82.205 46.2454 82.205C45.6754 82.205 45.1624 82.072 44.7064 81.806C44.2631 81.5273 43.9084 81.1537 43.6424 80.685C43.3891 80.2163 43.2624 79.678 43.2624 79.07C43.2624 78.462 43.3891 77.93 43.6424 77.474C43.9084 77.0053 44.2631 76.638 44.7064 76.372C45.1624 76.106 45.6754 75.973 46.2454 75.973C46.8154 75.973 47.3221 76.106 47.7654 76.372C48.2214 76.638 48.5761 77.0053 48.8294 77.474C49.0954 77.93 49.2284 78.462 49.2284 79.07ZM45.4474 88L49.9314 81.825C50.1848 81.4703 50.3874 81.0587 50.5394 80.59C50.6914 80.1213 50.7674 79.6147 50.7674 79.07C50.7674 78.158 50.5648 77.36 50.1594 76.676C49.7668 75.992 49.2284 75.46 48.5444 75.08C47.8731 74.7 47.1068 74.51 46.2454 74.51C45.3968 74.51 44.6304 74.7 43.9464 75.08C43.2624 75.46 42.7178 75.992 42.3124 76.676C41.9198 77.36 41.7234 78.158 41.7234 79.07C41.7234 79.678 41.8248 80.248 42.0274 80.78C42.2301 81.2993 42.5088 81.7553 42.8634 82.148C43.2308 82.5407 43.6488 82.8447 44.1174 83.06C44.5988 83.2753 45.1118 83.383 45.6564 83.383C46.0871 83.383 46.4671 83.3323 46.7964 83.231C47.1384 83.1297 47.4361 82.9207 47.6894 82.604L47.5754 82.509L43.4144 88H45.4474ZM58.082 83.63C58.082 84.504 58.2783 85.2893 58.671 85.986C59.0763 86.67 59.621 87.2083 60.305 87.601C60.989 87.9937 61.7553 88.19 62.604 88.19C63.4653 88.19 64.2316 87.9937 64.903 87.601C65.587 87.2083 66.1253 86.67 66.518 85.986C66.9233 85.2893 67.126 84.504 67.126 83.63C67.126 82.7433 66.9233 81.958 66.518 81.274C66.1253 80.59 65.587 80.0517 64.903 79.659C64.2316 79.2663 63.4653 79.07 62.604 79.07C61.7553 79.07 60.989 79.2663 60.305 79.659C59.621 80.0517 59.0763 80.59 58.671 81.274C58.2783 81.958 58.082 82.7433 58.082 83.63ZM59.621 83.63C59.621 83.022 59.7476 82.4837 60.001 82.015C60.267 81.5337 60.6216 81.16 61.065 80.894C61.521 80.628 62.034 80.495 62.604 80.495C63.174 80.495 63.6806 80.628 64.124 80.894C64.58 81.16 64.9346 81.5337 65.188 82.015C65.454 82.4837 65.587 83.022 65.587 83.63C65.587 84.238 65.454 84.7763 65.188 85.245C64.9346 85.7137 64.58 86.0873 64.124 86.366C63.6806 86.632 63.174 86.765 62.604 86.765C62.034 86.765 61.521 86.632 61.065 86.366C60.6216 86.0873 60.267 85.7137 60.001 85.245C59.7476 84.7763 59.621 84.238 59.621 83.63ZM70.734 84.58V79.26H69.214V84.77C69.214 85.8087 69.4864 86.6383 70.031 87.259C70.5757 87.8797 71.304 88.19 72.216 88.19C72.7987 88.19 73.3054 88.0633 73.736 87.81C74.1667 87.544 74.5277 87.1513 74.819 86.632V88H76.339V79.26H74.819V84.58C74.819 85.0107 74.724 85.3907 74.534 85.72C74.3567 86.0493 74.097 86.309 73.755 86.499C73.4257 86.6763 73.0394 86.765 72.596 86.765C71.988 86.765 71.5257 86.575 71.209 86.195C70.8924 85.815 70.734 85.2767 70.734 84.58ZM77.8665 79.26V80.685H82.2365V79.26H77.8665ZM79.2915 76.22V88H80.8115V76.22H79.2915ZM88.6972 83.63C88.6972 84.504 88.8935 85.2893 89.2862 85.986C89.6915 86.67 90.2362 87.2083 90.9202 87.601C91.6042 87.9937 92.3705 88.19 93.2192 88.19C94.0805 88.19 94.8469 87.9937 95.5182 87.601C96.2022 87.2083 96.7405 86.67 97.1332 85.986C97.5385 85.2893 97.7412 84.504 97.7412 83.63C97.7412 82.7433 97.5385 81.958 97.1332 81.274C96.7405 80.59 96.2022 80.0517 95.5182 79.659C94.8469 79.2663 94.0805 79.07 93.2192 79.07C92.3705 79.07 91.6042 79.2663 90.9202 79.659C90.2362 80.0517 89.6915 80.59 89.2862 81.274C88.8935 81.958 88.6972 82.7433 88.6972 83.63ZM90.2362 83.63C90.2362 83.022 90.3629 82.4837 90.6162 82.015C90.8822 81.5337 91.2369 81.16 91.6802 80.894C92.1362 80.628 92.6492 80.495 93.2192 80.495C93.7892 80.495 94.2959 80.628 94.7392 80.894C95.1952 81.16 95.5499 81.5337 95.8032 82.015C96.0692 82.4837 96.2022 83.022 96.2022 83.63C96.2022 84.238 96.0692 84.7763 95.8032 85.245C95.5499 85.7137 95.1952 86.0873 94.7392 86.366C94.2959 86.632 93.7892 86.765 93.2192 86.765C92.6492 86.765 92.1362 86.632 91.6802 86.366C91.2369 86.0873 90.8822 85.7137 90.6162 85.245C90.3629 84.7763 90.2362 84.238 90.2362 83.63ZM99.1643 79.26V80.685H103.534V79.26H99.1643ZM103.382 75.004L104.218 73.75C104.13 73.6233 104.003 73.503 103.838 73.389C103.686 73.275 103.503 73.18 103.287 73.104C103.072 73.028 102.825 72.99 102.546 72.99C102.014 72.99 101.558 73.104 101.178 73.332C100.811 73.5473 100.526 73.8767 100.323 74.32C100.121 74.7633 100.019 75.3333 100.019 76.03V88H101.539V76.22C101.539 75.802 101.577 75.4663 101.653 75.213C101.729 74.9597 101.831 74.7823 101.957 74.681C102.097 74.567 102.261 74.51 102.451 74.51C102.603 74.51 102.762 74.5417 102.926 74.605C103.104 74.6557 103.256 74.7887 103.382 75.004ZM119.493 83.63C119.493 82.7433 119.322 81.9643 118.98 81.293C118.638 80.6217 118.163 80.096 117.555 79.716C116.96 79.336 116.282 79.146 115.522 79.146C115.193 79.146 114.857 79.1903 114.515 79.279C114.186 79.355 113.863 79.4753 113.546 79.64L114.439 76.125H119.455V74.7H113.185L111.437 81.787C111.893 81.4703 112.292 81.2297 112.634 81.065C112.989 80.8877 113.337 80.7673 113.679 80.704C114.034 80.628 114.42 80.59 114.838 80.59C115.408 80.59 115.915 80.7167 116.358 80.97C116.814 81.2233 117.169 81.578 117.422 82.034C117.688 82.49 117.821 83.022 117.821 83.63C117.821 84.238 117.701 84.77 117.46 85.226C117.232 85.682 116.896 86.0367 116.453 86.29C116.01 86.5433 115.471 86.67 114.838 86.67C114.357 86.67 113.894 86.5687 113.451 86.366C113.008 86.1507 112.615 85.8783 112.273 85.549C111.944 85.207 111.678 84.846 111.475 84.466L110.107 85.397C110.398 85.9037 110.753 86.3723 111.171 86.803C111.602 87.221 112.115 87.5567 112.71 87.81C113.318 88.0633 114.027 88.19 114.838 88.19C115.484 88.19 116.086 88.095 116.643 87.905C117.2 87.715 117.694 87.43 118.125 87.05C118.556 86.67 118.891 86.195 119.132 85.625C119.373 85.055 119.493 84.39 119.493 83.63ZM128.428 81.35C128.428 80.3493 128.643 79.4563 129.074 78.671C129.517 77.8857 130.119 77.265 130.879 76.809C131.639 76.353 132.5 76.125 133.463 76.125C134.438 76.125 135.3 76.353 136.047 76.809C136.807 77.265 137.402 77.8857 137.833 78.671C138.276 79.4563 138.498 80.3493 138.498 81.35C138.498 82.3507 138.276 83.2437 137.833 84.029C137.402 84.8143 136.807 85.435 136.047 85.891C135.3 86.347 134.438 86.575 133.463 86.575C132.5 86.575 131.639 86.347 130.879 85.891C130.119 85.435 129.517 84.8143 129.074 84.029C128.643 83.2437 128.428 82.3507 128.428 81.35ZM126.718 81.35C126.718 82.3127 126.883 83.212 127.212 84.048C127.554 84.884 128.029 85.6123 128.637 86.233C129.245 86.841 129.961 87.3223 130.784 87.677C131.607 88.019 132.5 88.19 133.463 88.19C134.438 88.19 135.331 88.019 136.142 87.677C136.965 87.3223 137.681 86.841 138.289 86.233C138.897 85.6123 139.366 84.884 139.695 84.048C140.037 83.212 140.208 82.3127 140.208 81.35C140.208 80.3747 140.037 79.4753 139.695 78.652C139.366 77.816 138.897 77.094 138.289 76.486C137.681 75.8653 136.965 75.384 136.142 75.042C135.331 74.6873 134.438 74.51 133.463 74.51C132.5 74.51 131.607 74.6873 130.784 75.042C129.961 75.384 129.245 75.8653 128.637 76.486C128.029 77.094 127.554 77.816 127.212 78.652C126.883 79.4753 126.718 80.3747 126.718 81.35ZM141.247 79.26L145.427 88.665L149.607 79.26H147.897L145.427 85.435L142.957 79.26H141.247ZM154.144 88.19C155.081 88.19 155.892 88.0063 156.576 87.639C157.273 87.259 157.849 86.7017 158.305 85.967L157.07 85.188C156.753 85.72 156.367 86.119 155.911 86.385C155.455 86.6383 154.929 86.765 154.334 86.765C153.739 86.765 153.232 86.6383 152.814 86.385C152.396 86.1317 152.079 85.7643 151.864 85.283C151.649 84.8017 151.541 84.219 151.541 83.535C151.554 82.8637 151.668 82.3 151.883 81.844C152.111 81.3753 152.428 81.0207 152.833 80.78C153.251 80.5267 153.751 80.4 154.334 80.4C154.828 80.4 155.259 80.5077 155.626 80.723C155.993 80.9383 156.278 81.236 156.481 81.616C156.696 81.996 156.804 82.4457 156.804 82.965C156.804 83.0537 156.785 83.1677 156.747 83.307C156.709 83.4337 156.671 83.5287 156.633 83.592L157.241 82.718H150.971V84.01H158.438C158.438 83.9847 158.438 83.9277 158.438 83.839C158.451 83.7377 158.457 83.6427 158.457 83.554C158.457 82.6293 158.292 81.8313 157.963 81.16C157.634 80.4887 157.159 79.9757 156.538 79.621C155.93 79.2537 155.195 79.07 154.334 79.07C153.473 79.07 152.713 79.26 152.054 79.64C151.408 80.02 150.901 80.552 150.534 81.236C150.179 81.92 150.002 82.718 150.002 83.63C150.002 84.5293 150.173 85.321 150.515 86.005C150.87 86.689 151.357 87.2273 151.978 87.62C152.611 88 153.333 88.19 154.144 88.19ZM162.06 79.26H160.54V88H162.06V79.26ZM164.701 80.932L165.537 79.678C165.309 79.4373 165.056 79.279 164.777 79.203C164.511 79.1143 164.22 79.07 163.903 79.07C163.498 79.07 163.099 79.2283 162.706 79.545C162.314 79.8617 161.991 80.2923 161.737 80.837C161.497 81.369 161.376 81.9833 161.376 82.68H162.06C162.06 82.262 162.098 81.8883 162.174 81.559C162.263 81.2297 162.415 80.97 162.63 80.78C162.846 80.59 163.143 80.495 163.523 80.495C163.777 80.495 163.986 80.533 164.15 80.609C164.315 80.6723 164.499 80.78 164.701 80.932ZM167.737 85.302C167.737 84.9853 167.813 84.713 167.965 84.485C168.117 84.257 168.345 84.0797 168.649 83.953C168.966 83.8263 169.371 83.763 169.865 83.763C170.397 83.763 170.897 83.8327 171.366 83.972C171.835 84.0987 172.291 84.314 172.734 84.618V83.725C172.645 83.611 172.474 83.4653 172.221 83.288C171.968 83.098 171.626 82.9333 171.195 82.794C170.777 82.642 170.251 82.566 169.618 82.566C168.541 82.566 167.699 82.8257 167.091 83.345C166.496 83.8517 166.198 84.5293 166.198 85.378C166.198 85.9733 166.337 86.48 166.616 86.898C166.895 87.316 167.262 87.639 167.718 87.867C168.187 88.0823 168.687 88.19 169.219 88.19C169.7 88.19 170.182 88.1013 170.663 87.924C171.157 87.7467 171.569 87.4743 171.898 87.107C172.24 86.7397 172.411 86.2773 172.411 85.72L172.107 84.58C172.107 85.036 171.993 85.4413 171.765 85.796C171.55 86.138 171.252 86.404 170.872 86.594C170.505 86.784 170.087 86.879 169.618 86.879C169.251 86.879 168.921 86.822 168.63 86.708C168.351 86.5813 168.13 86.3977 167.965 86.157C167.813 85.9163 167.737 85.6313 167.737 85.302ZM167.509 81.274C167.648 81.1727 167.838 81.0523 168.079 80.913C168.32 80.7737 168.611 80.6533 168.953 80.552C169.308 80.4507 169.7 80.4 170.131 80.4C170.397 80.4 170.65 80.4253 170.891 80.476C171.132 80.5267 171.341 80.609 171.518 80.723C171.708 80.837 171.854 80.9953 171.955 81.198C172.056 81.388 172.107 81.635 172.107 81.939V88H173.627V81.73C173.627 81.16 173.481 80.6787 173.19 80.286C172.911 79.8933 172.512 79.5957 171.993 79.393C171.486 79.1777 170.891 79.07 170.207 79.07C169.396 79.07 168.7 79.1903 168.117 79.431C167.547 79.6717 167.097 79.9123 166.768 80.153L167.509 81.274ZM176.2 73.18V88H177.72V73.18H176.2ZM180.579 73.18V88H182.099V73.18H180.579ZM191.243 83.972L189.951 84.846C190.243 85.4287 190.616 85.9797 191.072 86.499C191.541 87.0057 192.079 87.4173 192.687 87.734C193.308 88.038 193.979 88.19 194.701 88.19C195.233 88.19 195.74 88.1013 196.221 87.924C196.715 87.7467 197.152 87.4933 197.532 87.164C197.925 86.8347 198.229 86.4357 198.444 85.967C198.672 85.4983 198.786 84.9727 198.786 84.39C198.786 83.782 198.679 83.2627 198.463 82.832C198.248 82.3887 197.969 82.015 197.627 81.711C197.298 81.3943 196.937 81.1347 196.544 80.932C196.152 80.7293 195.778 80.5647 195.423 80.438C194.651 80.172 194.036 79.906 193.58 79.64C193.137 79.3613 192.82 79.07 192.63 78.766C192.44 78.4493 192.345 78.1073 192.345 77.74C192.345 77.3093 192.51 76.923 192.839 76.581C193.169 76.2263 193.694 76.049 194.416 76.049C194.936 76.049 195.373 76.1503 195.727 76.353C196.095 76.5557 196.405 76.8153 196.658 77.132C196.912 77.4487 197.121 77.7717 197.285 78.101L198.672 77.303C198.457 76.8343 198.159 76.391 197.779 75.973C197.399 75.5423 196.937 75.194 196.392 74.928C195.86 74.6493 195.233 74.51 194.511 74.51C193.764 74.51 193.099 74.662 192.516 74.966C191.934 75.2573 191.478 75.6627 191.148 76.182C190.819 76.7013 190.654 77.2903 190.654 77.949C190.654 78.557 190.768 79.07 190.996 79.488C191.237 79.906 191.541 80.2607 191.908 80.552C192.276 80.8307 192.662 81.065 193.067 81.255C193.473 81.4323 193.84 81.578 194.169 81.692C194.676 81.8693 195.151 82.072 195.594 82.3C196.05 82.5153 196.418 82.8003 196.696 83.155C196.975 83.5097 197.114 83.9847 197.114 84.58C197.114 85.188 196.899 85.6883 196.468 86.081C196.038 86.4737 195.468 86.67 194.758 86.67C194.226 86.67 193.751 86.556 193.333 86.328C192.915 86.1 192.535 85.7833 192.193 85.378C191.864 84.9727 191.547 84.504 191.243 83.972ZM199.734 79.26V80.685H204.104V79.26H199.734ZM201.159 76.22V88H202.679V76.22H201.159ZM206.312 85.302C206.312 84.9853 206.388 84.713 206.54 84.485C206.692 84.257 206.92 84.0797 207.224 83.953C207.541 83.8263 207.946 83.763 208.44 83.763C208.972 83.763 209.472 83.8327 209.941 83.972C210.41 84.0987 210.866 84.314 211.309 84.618V83.725C211.22 83.611 211.049 83.4653 210.796 83.288C210.543 83.098 210.201 82.9333 209.77 82.794C209.352 82.642 208.826 82.566 208.193 82.566C207.116 82.566 206.274 82.8257 205.666 83.345C205.071 83.8517 204.773 84.5293 204.773 85.378C204.773 85.9733 204.912 86.48 205.191 86.898C205.47 87.316 205.837 87.639 206.293 87.867C206.762 88.0823 207.262 88.19 207.794 88.19C208.275 88.19 208.757 88.1013 209.238 87.924C209.732 87.7467 210.144 87.4743 210.473 87.107C210.815 86.7397 210.986 86.2773 210.986 85.72L210.682 84.58C210.682 85.036 210.568 85.4413 210.34 85.796C210.125 86.138 209.827 86.404 209.447 86.594C209.08 86.784 208.662 86.879 208.193 86.879C207.826 86.879 207.496 86.822 207.205 86.708C206.926 86.5813 206.705 86.3977 206.54 86.157C206.388 85.9163 206.312 85.6313 206.312 85.302ZM206.084 81.274C206.223 81.1727 206.413 81.0523 206.654 80.913C206.895 80.7737 207.186 80.6533 207.528 80.552C207.883 80.4507 208.275 80.4 208.706 80.4C208.972 80.4 209.225 80.4253 209.466 80.476C209.707 80.5267 209.916 80.609 210.093 80.723C210.283 80.837 210.429 80.9953 210.53 81.198C210.631 81.388 210.682 81.635 210.682 81.939V88H212.202V81.73C212.202 81.16 212.056 80.6787 211.765 80.286C211.486 79.8933 211.087 79.5957 210.568 79.393C210.061 79.1777 209.466 79.07 208.782 79.07C207.971 79.07 207.275 79.1903 206.692 79.431C206.122 79.6717 205.672 79.9123 205.343 80.153L206.084 81.274ZM216.296 79.26H214.776V88H216.296V79.26ZM218.937 80.932L219.773 79.678C219.545 79.4373 219.291 79.279 219.013 79.203C218.747 79.1143 218.455 79.07 218.139 79.07C217.733 79.07 217.334 79.2283 216.942 79.545C216.549 79.8617 216.226 80.2923 215.973 80.837C215.732 81.369 215.612 81.9833 215.612 82.68H216.296C216.296 82.262 216.334 81.8883 216.41 81.559C216.498 81.2297 216.65 80.97 216.866 80.78C217.081 80.59 217.379 80.495 217.759 80.495C218.012 80.495 218.221 80.533 218.386 80.609C218.55 80.6723 218.734 80.78 218.937 80.932ZM27.895 107.445L32.455 114H34.45L29.7 107.445H27.895ZM25.52 100.7V114H27.135V100.7H25.52ZM26.413 102.125H29.13C29.7 102.125 30.2003 102.226 30.631 102.429C31.0743 102.632 31.4163 102.923 31.657 103.303C31.9103 103.683 32.037 104.145 32.037 104.69C32.037 105.235 31.9103 105.697 31.657 106.077C31.4163 106.457 31.0743 106.748 30.631 106.951C30.2003 107.154 29.7 107.255 29.13 107.255H26.413V108.68H29.13C29.9913 108.68 30.7577 108.522 31.429 108.205C32.113 107.876 32.6513 107.413 33.044 106.818C33.4493 106.21 33.652 105.501 33.652 104.69C33.652 103.867 33.4493 103.157 33.044 102.562C32.6513 101.967 32.113 101.511 31.429 101.194C30.7577 100.865 29.9913 100.7 29.13 100.7H26.413V102.125ZM36.7408 111.302C36.7408 110.985 36.8168 110.713 36.9688 110.485C37.1208 110.257 37.3488 110.08 37.6528 109.953C37.9695 109.826 38.3748 109.763 38.8688 109.763C39.4008 109.763 39.9012 109.833 40.3698 109.972C40.8385 110.099 41.2945 110.314 41.7378 110.618V109.725C41.6492 109.611 41.4782 109.465 41.2248 109.288C40.9715 109.098 40.6295 108.933 40.1988 108.794C39.7808 108.642 39.2552 108.566 38.6218 108.566C37.5452 108.566 36.7028 108.826 36.0948 109.345C35.4995 109.852 35.2018 110.529 35.2018 111.378C35.2018 111.973 35.3412 112.48 35.6198 112.898C35.8985 113.316 36.2658 113.639 36.7218 113.867C37.1905 114.082 37.6908 114.19 38.2228 114.19C38.7042 114.19 39.1855 114.101 39.6668 113.924C40.1608 113.747 40.5725 113.474 40.9018 113.107C41.2438 112.74 41.4148 112.277 41.4148 111.72L41.1108 110.58C41.1108 111.036 40.9968 111.441 40.7688 111.796C40.5535 112.138 40.2558 112.404 39.8758 112.594C39.5085 112.784 39.0905 112.879 38.6218 112.879C38.2545 112.879 37.9252 112.822 37.6338 112.708C37.3552 112.581 37.1335 112.398 36.9688 112.157C36.8168 111.916 36.7408 111.631 36.7408 111.302ZM36.5128 107.274C36.6522 107.173 36.8422 107.052 37.0828 106.913C37.3235 106.774 37.6148 106.653 37.9568 106.552C38.3115 106.451 38.7042 106.4 39.1348 106.4C39.4008 106.4 39.6542 106.425 39.8948 106.476C40.1355 106.527 40.3445 106.609 40.5218 106.723C40.7118 106.837 40.8575 106.995 40.9588 107.198C41.0602 107.388 41.1108 107.635 41.1108 107.939V114H42.6308V107.73C42.6308 107.16 42.4852 106.679 42.1938 106.286C41.9152 105.893 41.5162 105.596 40.9968 105.393C40.4902 105.178 39.8948 105.07 39.2108 105.07C38.4002 105.07 37.7035 105.19 37.1208 105.431C36.5508 105.672 36.1012 105.912 35.7718 106.153L36.5128 107.274ZM43.8743 105.26V106.685H48.2443V105.26H43.8743ZM45.2993 102.22V114H46.8193V102.22H45.2993ZM49.7687 101.65C49.7687 101.929 49.8701 102.176 50.0727 102.391C50.2881 102.594 50.5351 102.695 50.8137 102.695C51.1051 102.695 51.3521 102.594 51.5547 102.391C51.7574 102.176 51.8587 101.929 51.8587 101.65C51.8587 101.359 51.7574 101.112 51.5547 100.909C51.3521 100.706 51.1051 100.605 50.8137 100.605C50.5351 100.605 50.2881 100.706 50.0727 100.909C49.8701 101.112 49.7687 101.359 49.7687 101.65ZM50.0537 105.26V114H51.5737V105.26H50.0537ZM60.3093 108.68V114H61.8293V108.49C61.8293 107.439 61.5569 106.609 61.0123 106.001C60.4803 105.38 59.7519 105.07 58.8273 105.07C58.2573 105.07 57.7506 105.197 57.3073 105.45C56.8766 105.703 56.5156 106.096 56.2243 106.628V105.26H54.7043V114H56.2243V108.68C56.2243 108.249 56.3129 107.869 56.4903 107.54C56.6803 107.211 56.9399 106.957 57.2693 106.78C57.6113 106.59 58.0039 106.495 58.4473 106.495C59.0553 106.495 59.5176 106.679 59.8343 107.046C60.1509 107.413 60.3093 107.958 60.3093 108.68ZM64.0977 114.57C64.0977 115.317 64.2814 115.976 64.6487 116.546C65.016 117.129 65.5227 117.578 66.1687 117.895C66.8274 118.212 67.581 118.37 68.4297 118.37C69.1644 118.37 69.861 118.199 70.5197 117.857C71.1784 117.515 71.7167 117.002 72.1347 116.318C72.5527 115.647 72.7617 114.811 72.7617 113.81V105.26H71.2417V113.81C71.2417 114.545 71.096 115.14 70.8047 115.596C70.526 116.065 70.1714 116.407 69.7407 116.622C69.31 116.837 68.873 116.945 68.4297 116.945C67.8597 116.945 67.3657 116.831 66.9477 116.603C66.5297 116.388 66.2067 116.096 65.9787 115.729C65.7507 115.374 65.6367 114.988 65.6367 114.57H64.0977ZM63.9267 109.63C63.9267 110.567 64.123 111.378 64.5157 112.062C64.9084 112.746 65.434 113.272 66.0927 113.639C66.7514 114.006 67.4734 114.19 68.2587 114.19C68.9934 114.19 69.633 114.006 70.1777 113.639C70.7224 113.272 71.1467 112.746 71.4507 112.062C71.7674 111.378 71.9257 110.567 71.9257 109.63C71.9257 108.68 71.7674 107.869 71.4507 107.198C71.1467 106.514 70.7224 105.988 70.1777 105.621C69.633 105.254 68.9934 105.07 68.2587 105.07C67.4734 105.07 66.7514 105.254 66.0927 105.621C65.434 105.988 64.9084 106.514 64.5157 107.198C64.123 107.869 63.9267 108.68 63.9267 109.63ZM65.4657 109.63C65.4657 108.959 65.5987 108.389 65.8647 107.92C66.1434 107.451 66.5107 107.097 66.9667 106.856C67.4227 106.615 67.9167 106.495 68.4487 106.495C68.778 106.495 69.1074 106.565 69.4367 106.704C69.766 106.843 70.0637 107.046 70.3297 107.312C70.6084 107.578 70.83 107.907 70.9947 108.3C71.1594 108.68 71.2417 109.123 71.2417 109.63C71.2417 110.301 71.1024 110.871 70.8237 111.34C70.545 111.809 70.1904 112.163 69.7597 112.404C69.329 112.645 68.892 112.765 68.4487 112.765C67.9167 112.765 67.4227 112.645 66.9667 112.404C66.5107 112.163 66.1434 111.809 65.8647 111.34C65.5987 110.871 65.4657 110.301 65.4657 109.63ZM80.5539 105.26V106.685H84.9239V105.26H80.5539ZM84.7719 101.004L85.6079 99.75C85.5193 99.6233 85.3926 99.503 85.2279 99.389C85.0759 99.275 84.8923 99.18 84.6769 99.104C84.4616 99.028 84.2146 98.99 83.9359 98.99C83.4039 98.99 82.9479 99.104 82.5679 99.332C82.2006 99.5473 81.9156 99.8767 81.7129 100.32C81.5103 100.763 81.4089 101.333 81.4089 102.03V114H82.9289V102.22C82.9289 101.802 82.9669 101.466 83.0429 101.213C83.1189 100.96 83.2203 100.782 83.3469 100.681C83.4863 100.567 83.6509 100.51 83.8409 100.51C83.9929 100.51 84.1513 100.542 84.3159 100.605C84.4933 100.656 84.6453 100.789 84.7719 101.004ZM85.8955 109.63C85.8955 110.504 86.0918 111.289 86.4845 111.986C86.8898 112.67 87.4345 113.208 88.1185 113.601C88.8025 113.994 89.5688 114.19 90.4175 114.19C91.2788 114.19 92.0451 113.994 92.7165 113.601C93.4005 113.208 93.9388 112.67 94.3315 111.986C94.7368 111.289 94.9395 110.504 94.9395 109.63C94.9395 108.743 94.7368 107.958 94.3315 107.274C93.9388 106.59 93.4005 106.052 92.7165 105.659C92.0451 105.266 91.2788 105.07 90.4175 105.07C89.5688 105.07 88.8025 105.266 88.1185 105.659C87.4345 106.052 86.8898 106.59 86.4845 107.274C86.0918 107.958 85.8955 108.743 85.8955 109.63ZM87.4345 109.63C87.4345 109.022 87.5611 108.484 87.8145 108.015C88.0805 107.534 88.4351 107.16 88.8785 106.894C89.3345 106.628 89.8475 106.495 90.4175 106.495C90.9875 106.495 91.4941 106.628 91.9375 106.894C92.3935 107.16 92.7481 107.534 93.0015 108.015C93.2675 108.484 93.4005 109.022 93.4005 109.63C93.4005 110.238 93.2675 110.776 93.0015 111.245C92.7481 111.714 92.3935 112.087 91.9375 112.366C91.4941 112.632 90.9875 112.765 90.4175 112.765C89.8475 112.765 89.3345 112.632 88.8785 112.366C88.4351 112.087 88.0805 111.714 87.8145 111.245C87.5611 110.776 87.4345 110.238 87.4345 109.63ZM98.5475 105.26H97.0275V114H98.5475V105.26ZM101.189 106.932L102.025 105.678C101.797 105.437 101.543 105.279 101.265 105.203C100.999 105.114 100.707 105.07 100.391 105.07C99.9852 105.07 99.5862 105.228 99.1935 105.545C98.8009 105.862 98.4779 106.292 98.2245 106.837C97.9839 107.369 97.8635 107.983 97.8635 108.68H98.5475C98.5475 108.262 98.5855 107.888 98.6615 107.559C98.7502 107.23 98.9022 106.97 99.1175 106.78C99.3329 106.59 99.6305 106.495 100.011 106.495C100.264 106.495 100.473 106.533 100.638 106.609C100.802 106.672 100.986 106.78 101.189 106.932ZM110.605 110.01H117.635L117.065 108.49H111.175L110.605 110.01ZM114.082 103.702L116.362 109.06L116.514 109.44L118.452 114H120.257L114.082 100.035L107.907 114H109.712L111.688 109.326L111.84 108.984L114.082 103.702ZM121.779 99.18V114H123.299V99.18H121.779ZM126.158 99.18V114H127.678V99.18H126.158ZM136.329 100.7V114H143.169V112.48H137.944V100.7H136.329ZM144.027 109.63C144.027 110.504 144.224 111.289 144.616 111.986C145.022 112.67 145.566 113.208 146.25 113.601C146.934 113.994 147.701 114.19 148.549 114.19C149.411 114.19 150.177 113.994 150.848 113.601C151.532 113.208 152.071 112.67 152.463 111.986C152.869 111.289 153.071 110.504 153.071 109.63C153.071 108.743 152.869 107.958 152.463 107.274C152.071 106.59 151.532 106.052 150.848 105.659C150.177 105.266 149.411 105.07 148.549 105.07C147.701 105.07 146.934 105.266 146.25 105.659C145.566 106.052 145.022 106.59 144.616 107.274C144.224 107.958 144.027 108.743 144.027 109.63ZM145.566 109.63C145.566 109.022 145.693 108.484 145.946 108.015C146.212 107.534 146.567 107.16 147.01 106.894C147.466 106.628 147.979 106.495 148.549 106.495C149.119 106.495 149.626 106.628 150.069 106.894C150.525 107.16 150.88 107.534 151.133 108.015C151.399 108.484 151.532 109.022 151.532 109.63C151.532 110.238 151.399 110.776 151.133 111.245C150.88 111.714 150.525 112.087 150.069 112.366C149.626 112.632 149.119 112.765 148.549 112.765C147.979 112.765 147.466 112.632 147.01 112.366C146.567 112.087 146.212 111.714 145.946 111.245C145.693 110.776 145.566 110.238 145.566 109.63ZM155.843 109.63C155.843 109.022 155.97 108.484 156.223 108.015C156.489 107.534 156.844 107.16 157.287 106.894C157.743 106.628 158.256 106.495 158.826 106.495C159.295 106.495 159.732 106.571 160.137 106.723C160.555 106.862 160.916 107.052 161.22 107.293C161.524 107.534 161.74 107.8 161.866 108.091V106.191C161.562 105.836 161.125 105.564 160.555 105.374C159.998 105.171 159.422 105.07 158.826 105.07C157.978 105.07 157.211 105.266 156.527 105.659C155.843 106.052 155.299 106.59 154.893 107.274C154.501 107.958 154.304 108.743 154.304 109.63C154.304 110.504 154.501 111.289 154.893 111.986C155.299 112.67 155.843 113.208 156.527 113.601C157.211 113.994 157.978 114.19 158.826 114.19C159.422 114.19 159.998 114.095 160.555 113.905C161.125 113.702 161.562 113.424 161.866 113.069V111.169C161.74 111.448 161.524 111.714 161.22 111.967C160.916 112.208 160.555 112.404 160.137 112.556C159.732 112.695 159.295 112.765 158.826 112.765C158.256 112.765 157.743 112.632 157.287 112.366C156.844 112.087 156.489 111.714 156.223 111.245C155.97 110.776 155.843 110.238 155.843 109.63ZM164.917 111.302C164.917 110.985 164.993 110.713 165.145 110.485C165.297 110.257 165.525 110.08 165.829 109.953C166.145 109.826 166.551 109.763 167.045 109.763C167.577 109.763 168.077 109.833 168.546 109.972C169.014 110.099 169.47 110.314 169.914 110.618V109.725C169.825 109.611 169.654 109.465 169.401 109.288C169.147 109.098 168.805 108.933 168.375 108.794C167.957 108.642 167.431 108.566 166.798 108.566C165.721 108.566 164.879 108.826 164.271 109.345C163.675 109.852 163.378 110.529 163.378 111.378C163.378 111.973 163.517 112.48 163.796 112.898C164.074 113.316 164.442 113.639 164.898 113.867C165.366 114.082 165.867 114.19 166.399 114.19C166.88 114.19 167.361 114.101 167.843 113.924C168.337 113.747 168.748 113.474 169.078 113.107C169.42 112.74 169.591 112.277 169.591 111.72L169.287 110.58C169.287 111.036 169.173 111.441 168.945 111.796C168.729 112.138 168.432 112.404 168.052 112.594C167.684 112.784 167.266 112.879 166.798 112.879C166.43 112.879 166.101 112.822 165.81 112.708C165.531 112.581 165.309 112.398 165.145 112.157C164.993 111.916 164.917 111.631 164.917 111.302ZM164.689 107.274C164.828 107.173 165.018 107.052 165.259 106.913C165.499 106.774 165.791 106.653 166.133 106.552C166.487 106.451 166.88 106.4 167.311 106.4C167.577 106.4 167.83 106.425 168.071 106.476C168.311 106.527 168.52 106.609 168.698 106.723C168.888 106.837 169.033 106.995 169.135 107.198C169.236 107.388 169.287 107.635 169.287 107.939V114H170.807V107.73C170.807 107.16 170.661 106.679 170.37 106.286C170.091 105.893 169.692 105.596 169.173 105.393C168.666 105.178 168.071 105.07 167.387 105.07C166.576 105.07 165.879 105.19 165.297 105.431C164.727 105.672 164.277 105.912 163.948 106.153L164.689 107.274ZM173.38 99.18V114H174.9V99.18H173.38ZM184.823 106.97H186.97C187.768 106.97 188.459 106.856 189.041 106.628C189.637 106.4 190.099 106.064 190.428 105.621C190.758 105.178 190.922 104.646 190.922 104.025C190.922 103.265 190.758 102.644 190.428 102.163C190.099 101.669 189.637 101.302 189.041 101.061C188.459 100.82 187.768 100.7 186.97 100.7H183.55V114H187.16C188.022 114 188.788 113.861 189.459 113.582C190.143 113.291 190.682 112.86 191.074 112.29C191.48 111.707 191.682 110.979 191.682 110.105C191.682 109.497 191.568 108.971 191.34 108.528C191.112 108.085 190.789 107.724 190.371 107.445C189.966 107.154 189.491 106.938 188.946 106.799C188.402 106.66 187.806 106.59 187.16 106.59H184.823V107.483H187.16C187.591 107.483 187.984 107.54 188.338 107.654C188.693 107.755 188.997 107.914 189.25 108.129C189.516 108.344 189.719 108.61 189.858 108.927C189.998 109.244 190.067 109.605 190.067 110.01C190.067 110.555 189.941 111.017 189.687 111.397C189.447 111.777 189.105 112.068 188.661 112.271C188.231 112.474 187.73 112.575 187.16 112.575H185.165V102.125H186.97C187.642 102.125 188.199 102.302 188.642 102.657C189.086 102.999 189.307 103.487 189.307 104.12C189.307 104.538 189.206 104.893 189.003 105.184C188.801 105.475 188.522 105.697 188.167 105.849C187.813 106.001 187.414 106.077 186.97 106.077H184.823V106.97ZM195.57 110.58V105.26H194.05V110.77C194.05 111.809 194.322 112.638 194.867 113.259C195.412 113.88 196.14 114.19 197.052 114.19C197.635 114.19 198.141 114.063 198.572 113.81C199.003 113.544 199.364 113.151 199.655 112.632V114H201.175V105.26H199.655V110.58C199.655 111.011 199.56 111.391 199.37 111.72C199.193 112.049 198.933 112.309 198.591 112.499C198.262 112.676 197.875 112.765 197.432 112.765C196.824 112.765 196.362 112.575 196.045 112.195C195.728 111.815 195.57 111.277 195.57 110.58ZM204.393 111.321L203.196 112.062C203.361 112.404 203.602 112.74 203.918 113.069C204.248 113.398 204.647 113.671 205.115 113.886C205.584 114.089 206.11 114.19 206.692 114.19C207.592 114.19 208.314 113.937 208.858 113.43C209.416 112.923 209.694 112.29 209.694 111.53C209.694 111.011 209.568 110.586 209.314 110.257C209.074 109.928 208.744 109.649 208.326 109.421C207.908 109.18 207.446 108.959 206.939 108.756C206.635 108.629 206.344 108.496 206.065 108.357C205.787 108.218 205.559 108.059 205.381 107.882C205.204 107.705 205.115 107.502 205.115 107.274C205.115 106.983 205.229 106.767 205.457 106.628C205.685 106.489 205.958 106.419 206.274 106.419C206.73 106.419 207.136 106.527 207.49 106.742C207.858 106.957 208.162 107.23 208.402 107.559L209.618 106.78C209.441 106.451 209.194 106.159 208.877 105.906C208.561 105.653 208.193 105.45 207.775 105.298C207.37 105.146 206.933 105.07 206.464 105.07C205.996 105.07 205.54 105.152 205.096 105.317C204.666 105.482 204.311 105.735 204.032 106.077C203.766 106.419 203.633 106.85 203.633 107.369C203.633 107.876 203.76 108.3 204.013 108.642C204.279 108.971 204.602 109.244 204.982 109.459C205.375 109.662 205.761 109.839 206.141 109.991C206.483 110.118 206.806 110.257 207.11 110.409C207.414 110.548 207.661 110.726 207.851 110.941C208.054 111.144 208.155 111.397 208.155 111.701C208.155 112.043 208.029 112.315 207.775 112.518C207.535 112.708 207.199 112.803 206.768 112.803C206.414 112.803 206.084 112.74 205.78 112.613C205.489 112.474 205.229 112.29 205.001 112.062C204.773 111.834 204.571 111.587 204.393 111.321ZM211.695 101.65C211.695 101.929 211.797 102.176 211.999 102.391C212.215 102.594 212.462 102.695 212.74 102.695C213.032 102.695 213.279 102.594 213.481 102.391C213.684 102.176 213.785 101.929 213.785 101.65C213.785 101.359 213.684 101.112 213.481 100.909C213.279 100.706 213.032 100.605 212.74 100.605C212.462 100.605 212.215 100.706 211.999 100.909C211.797 101.112 211.695 101.359 211.695 101.65ZM211.98 105.26V114H213.5V105.26H211.98ZM222.236 108.68V114H223.756V108.49C223.756 107.439 223.484 106.609 222.939 106.001C222.407 105.38 221.679 105.07 220.754 105.07C220.184 105.07 219.677 105.197 219.234 105.45C218.803 105.703 218.442 106.096 218.151 106.628V105.26H216.631V114H218.151V108.68C218.151 108.249 218.24 107.869 218.417 107.54C218.607 107.211 218.867 106.957 219.196 106.78C219.538 106.59 219.931 106.495 220.374 106.495C220.982 106.495 221.444 106.679 221.761 107.046C222.078 107.413 222.236 107.958 222.236 108.68ZM229.995 114.19C230.933 114.19 231.743 114.006 232.427 113.639C233.124 113.259 233.7 112.702 234.156 111.967L232.921 111.188C232.605 111.72 232.218 112.119 231.762 112.385C231.306 112.638 230.781 112.765 230.185 112.765C229.59 112.765 229.083 112.638 228.665 112.385C228.247 112.132 227.931 111.764 227.715 111.283C227.5 110.802 227.392 110.219 227.392 109.535C227.405 108.864 227.519 108.3 227.734 107.844C227.962 107.375 228.279 107.021 228.684 106.78C229.102 106.527 229.603 106.4 230.185 106.4C230.679 106.4 231.11 106.508 231.477 106.723C231.845 106.938 232.13 107.236 232.332 107.616C232.548 107.996 232.655 108.446 232.655 108.965C232.655 109.054 232.636 109.168 232.598 109.307C232.56 109.434 232.522 109.529 232.484 109.592L233.092 108.718H226.822V110.01H234.289C234.289 109.985 234.289 109.928 234.289 109.839C234.302 109.738 234.308 109.643 234.308 109.554C234.308 108.629 234.144 107.831 233.814 107.16C233.485 106.489 233.01 105.976 232.389 105.621C231.781 105.254 231.047 105.07 230.185 105.07C229.324 105.07 228.564 105.26 227.905 105.64C227.259 106.02 226.753 106.552 226.385 107.236C226.031 107.92 225.853 108.718 225.853 109.63C225.853 110.529 226.024 111.321 226.366 112.005C226.721 112.689 227.209 113.227 227.829 113.62C228.463 114 229.185 114.19 229.995 114.19ZM236.753 111.321L235.556 112.062C235.72 112.404 235.961 112.74 236.278 113.069C236.607 113.398 237.006 113.671 237.475 113.886C237.943 114.089 238.469 114.19 239.052 114.19C239.951 114.19 240.673 113.937 241.218 113.43C241.775 112.923 242.054 112.29 242.054 111.53C242.054 111.011 241.927 110.586 241.674 110.257C241.433 109.928 241.104 109.649 240.686 109.421C240.268 109.18 239.805 108.959 239.299 108.756C238.995 108.629 238.703 108.496 238.425 108.357C238.146 108.218 237.918 108.059 237.741 107.882C237.563 107.705 237.475 107.502 237.475 107.274C237.475 106.983 237.589 106.767 237.817 106.628C238.045 106.489 238.317 106.419 238.634 106.419C239.09 106.419 239.495 106.527 239.85 106.742C240.217 106.957 240.521 107.23 240.762 107.559L241.978 106.78C241.8 106.451 241.553 106.159 241.237 105.906C240.92 105.653 240.553 105.45 240.135 105.298C239.729 105.146 239.292 105.07 238.824 105.07C238.355 105.07 237.899 105.152 237.456 105.317C237.025 105.482 236.67 105.735 236.392 106.077C236.126 106.419 235.993 106.85 235.993 107.369C235.993 107.876 236.119 108.3 236.373 108.642C236.639 108.971 236.962 109.244 237.342 109.459C237.734 109.662 238.121 109.839 238.501 109.991C238.843 110.118 239.166 110.257 239.47 110.409C239.774 110.548 240.021 110.726 240.211 110.941C240.413 111.144 240.515 111.397 240.515 111.701C240.515 112.043 240.388 112.315 240.135 112.518C239.894 112.708 239.558 112.803 239.128 112.803C238.773 112.803 238.444 112.74 238.14 112.613C237.848 112.474 237.589 112.29 237.361 112.062C237.133 111.834 236.93 111.587 236.753 111.321ZM244.416 111.321L243.219 112.062C243.384 112.404 243.624 112.74 243.941 113.069C244.27 113.398 244.669 113.671 245.138 113.886C245.607 114.089 246.132 114.19 246.715 114.19C247.614 114.19 248.336 113.937 248.881 113.43C249.438 112.923 249.717 112.29 249.717 111.53C249.717 111.011 249.59 110.586 249.337 110.257C249.096 109.928 248.767 109.649 248.349 109.421C247.931 109.18 247.469 108.959 246.962 108.756C246.658 108.629 246.367 108.496 246.088 108.357C245.809 108.218 245.581 108.059 245.404 107.882C245.227 107.705 245.138 107.502 245.138 107.274C245.138 106.983 245.252 106.767 245.48 106.628C245.708 106.489 245.98 106.419 246.297 106.419C246.753 106.419 247.158 106.527 247.513 106.742C247.88 106.957 248.184 107.23 248.425 107.559L249.641 106.78C249.464 106.451 249.217 106.159 248.9 105.906C248.583 105.653 248.216 105.45 247.798 105.298C247.393 105.146 246.956 105.07 246.487 105.07C246.018 105.07 245.562 105.152 245.119 105.317C244.688 105.482 244.334 105.735 244.055 106.077C243.789 106.419 243.656 106.85 243.656 107.369C243.656 107.876 243.783 108.3 244.036 108.642C244.302 108.971 244.625 109.244 245.005 109.459C245.398 109.662 245.784 109.839 246.164 109.991C246.506 110.118 246.829 110.257 247.133 110.409C247.437 110.548 247.684 110.726 247.874 110.941C248.077 111.144 248.178 111.397 248.178 111.701C248.178 112.043 248.051 112.315 247.798 112.518C247.557 112.708 247.222 112.803 246.791 112.803C246.436 112.803 246.107 112.74 245.803 112.613C245.512 112.474 245.252 112.29 245.024 112.062C244.796 111.834 244.593 111.587 244.416 111.321ZM252.098 113.24C252.098 113.519 252.199 113.766 252.402 113.981C252.617 114.184 252.864 114.285 253.143 114.285C253.434 114.285 253.681 114.184 253.884 113.981C254.087 113.766 254.188 113.519 254.188 113.24C254.188 112.949 254.087 112.702 253.884 112.499C253.681 112.296 253.434 112.195 253.143 112.195C252.864 112.195 252.617 112.296 252.402 112.499C252.199 112.702 252.098 112.949 252.098 113.24Z" fill="#64646A"/>
<defs>
<clipPath id="clip0_1_40">
<rect width="36" height="36" fill="white" transform="translate(24 20)"/>
</clipPath>
<clipPath id="clip1_1_40">
<rect width="36" height="36" fill="white" transform="translate(60 20)"/>
</clipPath>
<clipPath id="clip2_1_40">
<rect width="36" height="36" fill="white" transform="translate(96 20)"/>
</clipPath>
<clipPath id="clip3_1_40">
<rect width="36" height="36" fill="white" transform="translate(132 20)"/>
</clipPath>
<clipPath id="clip4_1_40">
<rect width="36" height="36" fill="white" transform="translate(168 20)"/>
</clipPath>
</defs>
</svg>
