<svg width="56" height="56" viewBox="0 0 56 56" fill="none" xmlns="http://www.w3.org/2000/svg">
<path d="M23.4016 4.4485C25.9655 1.96818 30.0345 1.96818 32.5984 4.4485C34.0646 5.86686 36.1032 6.52926 38.123 6.24356C41.6552 5.74396 44.9471 8.13566 45.5634 11.6493C45.9159 13.6586 47.1758 15.3927 48.9778 16.3488C52.129 18.0208 53.3864 21.8906 51.8198 25.0955C50.9239 26.9282 50.9239 29.0718 51.8198 30.9045C53.3864 34.1094 52.129 37.9792 48.9778 39.6512C47.1758 40.6073 45.9159 42.3414 45.5634 44.3507C44.9471 47.8643 41.6552 50.256 38.123 49.7564C36.1032 49.4707 34.0646 50.1331 32.5984 51.5515C30.0345 54.0318 25.9655 54.0318 23.4016 51.5515C21.9354 50.1331 19.8968 49.4707 17.877 49.7564C14.3448 50.256 11.0529 47.8643 10.4366 44.3507C10.0841 42.3414 8.82418 40.6073 7.02218 39.6512C3.87096 37.9792 2.61357 34.1094 4.18021 30.9045C5.07608 29.0718 5.07608 26.9282 4.18021 25.0955C2.61357 21.8906 3.87096 18.0208 7.02218 16.3488C8.82418 15.3927 10.0841 13.6586 10.4366 11.6493C11.0529 8.13566 14.3448 5.74396 17.877 6.24356C19.8968 6.52926 21.9354 5.86686 23.4016 4.4485Z" fill="#F95555"/>
<path d="M35 21L21 35" stroke="white" stroke-width="2" stroke-linecap="round" stroke-linejoin="round"/>
<path d="M22.5 25C23.8807 25 25 23.8807 25 22.5C25 21.1193 23.8807 20 22.5 20C21.1193 20 20 21.1193 20 22.5C20 23.8807 21.1193 25 22.5 25Z" stroke="white" stroke-width="2" stroke-linecap="round" stroke-linejoin="round"/>
<path d="M33.5 36C34.8807 36 36 34.8807 36 33.5C36 32.1193 34.8807 31 33.5 31C32.1193 31 31 32.1193 31 33.5C31 34.8807 32.1193 36 33.5 36Z" stroke="white" stroke-width="2" stroke-linecap="round" stroke-linejoin="round"/>
</svg>
