<svg width="42" height="16" viewBox="0 0 42 16" fill="none" xmlns="http://www.w3.org/2000/svg">
<path d="M41.0001 9C41.5524 9 42.0001 8.55228 42.0001 8C42.0001 7.44772 41.5524 7 41.0001 7L41.0001 9ZM0.293024 7.2929C-0.0975018 7.68342 -0.0975017 8.31659 0.293024 8.70711L6.65698 15.0711C7.04751 15.4616 7.68067 15.4616 8.0712 15.0711C8.46172 14.6805 8.46172 14.0474 8.0712 13.6569L2.41434 8L8.0712 2.34315C8.46172 1.95262 8.46172 1.31946 8.07119 0.928935C7.68067 0.538411 7.04751 0.538411 6.65698 0.928935L0.293024 7.2929ZM41.0001 7L1.00013 7L1.00013 9L41.0001 9L41.0001 7Z" fill="#BCBCBC"/>
</svg>
