<svg width="245" height="99" viewBox="0 0 245 99" fill="none" xmlns="http://www.w3.org/2000/svg">
<path d="M0.729855 58.02C0.311167 57.3051 0.551242 56.3862 1.26608 55.9676C1.98091 55.5489 2.89982 55.7889 3.31851 56.5038L0.729855 58.02ZM68.4428 97.1737L68.5118 95.6753L68.4428 97.1737ZM145.848 24.2772L144.395 24.6487L145.848 24.2772ZM92.4967 41.1667L91.1311 41.7873L92.4967 41.1667ZM239.351 18.9817C240.158 18.7949 240.964 19.2977 241.151 20.1048L244.195 33.2572C244.381 34.0643 243.879 34.87 243.072 35.0568C242.264 35.2436 241.459 34.7407 241.272 33.9336L238.566 22.2427L226.875 24.9484C226.068 25.1352 225.262 24.6323 225.076 23.8252C224.889 23.0181 225.392 22.2124 226.199 22.0256L239.351 18.9817ZM3.31851 56.5038C13.8724 74.5226 39.1065 94.3212 68.5118 95.6753L68.3738 98.6721C37.802 97.2643 11.7154 76.7759 0.729855 58.02L3.31851 56.5038ZM68.5118 95.6753C86.8992 96.522 108.832 89.8967 124.679 77.4263C140.476 64.9959 150.083 46.9057 144.395 24.6487L147.301 23.9058C153.358 47.6014 143.006 66.8226 126.535 79.7839C110.115 92.7051 87.4722 99.5516 68.3738 98.6721L68.5118 95.6753ZM144.395 24.6487C141.792 14.4652 136.412 8.53552 130.178 5.71231C123.901 2.86913 116.55 3.08353 109.893 5.60715C103.235 8.13139 97.4023 12.9187 94.1558 19.026C90.9323 25.09 90.2163 32.523 93.8623 40.5461L91.1311 41.7873C87.0927 32.9006 87.8542 24.4891 91.5068 17.6178C95.1364 10.7898 101.579 5.55097 108.83 2.80197C116.083 0.0523337 124.277 -0.253618 131.416 2.97951C138.599 6.23261 144.507 12.9759 147.301 23.9058L144.395 24.6487ZM93.8623 40.5461C101.432 57.2031 123.318 74.8073 150.427 76.8465C177.372 78.8735 209.791 65.5147 238.417 19.6489L240.962 21.2373C211.905 67.7943 178.531 81.9691 150.202 79.8381C122.037 77.7193 99.1685 59.4738 91.1311 41.7873L93.8623 40.5461Z" fill="#F95555"/>
</svg>
